<svg xmlns="http://www.w3.org/2000/svg" xmlns:xlink="http://www.w3.org/1999/xlink" contentStyleType="text/css" data-diagram-type="SEQUENCE" height="1370px" preserveAspectRatio="none" style="width:1311px;height:1370px;background:#FFFFFF;" version="1.1" viewBox="0 0 1311 1370" width="1311px" zoomAndPan="magnify"><title>DVA Proces Flow Optie 1 </title><defs/><g><text fill="#000000" font-family="Verdana" font-size="22" font-weight="bold" lengthAdjust="spacing" textLength="306.8398" x="502.5496" y="35.4209">DVA Proces Flow Optie 1</text><text fill="#000000" font-family="Verdana" font-size="22" font-weight="bold" lengthAdjust="spacing" textLength="905.835" x="210.7112" y="61.0303">DVA Proces Flow - Response Type OTP Mechanisme met Token Exchange</text><rect fill="#FFFFFF" height="46.2656" rx="5" ry="5" style="stroke:#000000;stroke-width:1;" width="931.4126" x="15" y="171.5156"/><rect fill="#FFFFFF" height="285.3281" rx="5" ry="5" style="stroke:#000000;stroke-width:1;" width="1281.7427" x="15" y="231.7813"/><rect fill="#FFFFFF" height="330.9922" rx="5" ry="5" style="stroke:#000000;stroke-width:1;" width="1290.5981" x="15" y="531.1094"/><rect fill="#FFFFFF" height="396.125" rx="5" ry="5" style="stroke:#000000;stroke-width:1;" width="1150.895" x="15" y="876.1016"/><g><title>Browser</title><rect fill="#000000" fill-opacity="0.00000" height="1134.7109" width="8" x="52.5195" y="154.5156"/><line style="stroke:#000000;stroke-width:1;" x1="56" x2="56" y1="154.5156" y2="1289.2266"/></g><g><title>DVA</title><rect fill="#000000" fill-opacity="0.00000" height="1134.7109" width="8" x="415.2813" y="154.5156"/><line style="stroke:#000000;stroke-width:1;" x1="418.314" x2="418.314" y1="154.5156" y2="1289.2266"/></g><g><title>PGO</title><rect fill="#000000" fill-opacity="0.00000" height="1134.7109" width="8" x="914.2573" y="154.5156"/><line style="stroke:#000000;stroke-width:1;" x1="918.1021" x2="918.1021" y1="154.5156" y2="1289.2266"/></g><g><title>Module</title><rect fill="#000000" fill-opacity="0.00000" height="1134.7109" width="8" x="1123.4414" y="154.5156"/><line style="stroke:#000000;stroke-width:1;" x1="1126.9878" x2="1126.9878" y1="154.5156" y2="1289.2266"/></g><g><title>DigID</title><rect fill="#000000" fill-opacity="0.00000" height="1134.7109" width="8" x="1184.1279" y="154.5156"/><line style="stroke:#000000;stroke-width:1;" x1="1187.895" x2="1187.895" y1="154.5156" y2="1289.2266"/></g><g><title>DVA_fhir</title><rect fill="#000000" fill-opacity="0.00000" height="1134.7109" width="8" x="1249.5518" y="154.5156"/><line style="stroke:#000000;stroke-width:1;" x1="1253.3608" x2="1253.3608" y1="154.5156" y2="1289.2266"/></g><g class="participant participant-head" data-participant="Browser"><text fill="#000000" font-family="Verdana" font-size="14" lengthAdjust="spacing" textLength="57.0391" x="25" y="151.2139">Browser</text><ellipse cx="56.5195" cy="86.2188" fill="#FFFFFF" rx="8" ry="8" style="stroke:#000000;stroke-width:1;"/><path d="M56.5195,94.2188 L56.5195,121.2188 M43.5195,102.2188 L69.5195,102.2188 M56.5195,121.2188 L43.5195,136.2188 M56.5195,121.2188 L69.5195,136.2188" fill="none" style="stroke:#000000;stroke-width:1;"/></g><g class="participant participant-tail" data-participant="Browser"><text fill="#000000" font-family="Verdana" font-size="14" lengthAdjust="spacing" textLength="57.0391" x="25" y="1301.2217">Browser</text><ellipse cx="56.5195" cy="1313.5234" fill="#FFFFFF" rx="8" ry="8" style="stroke:#000000;stroke-width:1;"/><path d="M56.5195,1321.5234 L56.5195,1348.5234 M43.5195,1329.5234 L69.5195,1329.5234 M56.5195,1348.5234 L43.5195,1363.5234 M56.5195,1348.5234 L69.5195,1363.5234" fill="none" style="stroke:#000000;stroke-width:1;"/></g><g class="participant participant-head" data-participant="DVA"><text fill="#000000" font-family="Verdana" font-size="14" lengthAdjust="spacing" textLength="29.9346" x="401.314" y="151.2139">DVA</text><ellipse cx="419.2813" cy="122.2188" fill="#FFFFFF" rx="12" ry="12" style="stroke:#000000;stroke-width:1;"/><polygon fill="#000000" points="415.2813,110.2188,421.2813,105.2188,419.2813,110.2188,421.2813,115.2188,415.2813,110.2188" style="stroke:#000000;stroke-width:1;"/></g><g class="participant participant-tail" data-participant="DVA"><text fill="#000000" font-family="Verdana" font-size="14" lengthAdjust="spacing" textLength="29.9346" x="401.314" y="1301.2217">DVA</text><ellipse cx="419.2813" cy="1320.5234" fill="#FFFFFF" rx="12" ry="12" style="stroke:#000000;stroke-width:1;"/><polygon fill="#000000" points="415.2813,1308.5234,421.2813,1303.5234,419.2813,1308.5234,421.2813,1313.5234,415.2813,1308.5234" style="stroke:#000000;stroke-width:1;"/></g><g class="participant participant-head" data-participant="PGO"><text fill="#000000" font-family="Verdana" font-size="14" lengthAdjust="spacing" textLength="30.3105" x="900.1021" y="151.2139">PGO</text><ellipse cx="918.2573" cy="122.2188" fill="#FFFFFF" rx="12" ry="12" style="stroke:#000000;stroke-width:1;"/><polygon fill="#000000" points="914.2573,110.2188,920.2573,105.2188,918.2573,110.2188,920.2573,115.2188,914.2573,110.2188" style="stroke:#000000;stroke-width:1;"/></g><g class="participant participant-tail" data-participant="PGO"><text fill="#000000" font-family="Verdana" font-size="14" lengthAdjust="spacing" textLength="30.3105" x="900.1021" y="1301.2217">PGO</text><ellipse cx="918.2573" cy="1320.5234" fill="#FFFFFF" rx="12" ry="12" style="stroke:#000000;stroke-width:1;"/><polygon fill="#000000" points="914.2573,1308.5234,920.2573,1303.5234,918.2573,1308.5234,920.2573,1313.5234,914.2573,1308.5234" style="stroke:#000000;stroke-width:1;"/></g><g class="participant participant-head" data-participant="Module"><text fill="#000000" font-family="Verdana" font-size="14" lengthAdjust="spacing" textLength="50.9072" x="1098.9878" y="151.2139">Module</text><ellipse cx="1127.4414" cy="122.2188" fill="#FFFFFF" rx="12" ry="12" style="stroke:#000000;stroke-width:1;"/><polygon fill="#000000" points="1123.4414,110.2188,1129.4414,105.2188,1127.4414,110.2188,1129.4414,115.2188,1123.4414,110.2188" style="stroke:#000000;stroke-width:1;"/></g><g class="participant participant-tail" data-participant="Module"><text fill="#000000" font-family="Verdana" font-size="14" lengthAdjust="spacing" textLength="50.9072" x="1098.9878" y="1301.2217">Module</text><ellipse cx="1127.4414" cy="1320.5234" fill="#FFFFFF" rx="12" ry="12" style="stroke:#000000;stroke-width:1;"/><polygon fill="#000000" points="1123.4414,1308.5234,1129.4414,1303.5234,1127.4414,1308.5234,1129.4414,1313.5234,1123.4414,1308.5234" style="stroke:#000000;stroke-width:1;"/></g><g class="participant participant-head" data-participant="DigID"><text fill="#000000" font-family="Verdana" font-size="14" lengthAdjust="spacing" textLength="38.4658" x="1165.895" y="151.2139">DigID</text><ellipse cx="1188.1279" cy="122.2188" fill="#FFFFFF" rx="12" ry="12" style="stroke:#000000;stroke-width:1;"/><polygon fill="#000000" points="1184.1279,110.2188,1190.1279,105.2188,1188.1279,110.2188,1190.1279,115.2188,1184.1279,110.2188" style="stroke:#000000;stroke-width:1;"/></g><g class="participant participant-tail" data-participant="DigID"><text fill="#000000" font-family="Verdana" font-size="14" lengthAdjust="spacing" textLength="38.4658" x="1165.895" y="1301.2217">DigID</text><ellipse cx="1188.1279" cy="1320.5234" fill="#FFFFFF" rx="12" ry="12" style="stroke:#000000;stroke-width:1;"/><polygon fill="#000000" points="1184.1279,1308.5234,1190.1279,1303.5234,1188.1279,1308.5234,1190.1279,1313.5234,1184.1279,1308.5234" style="stroke:#000000;stroke-width:1;"/></g><g class="participant participant-head" data-participant="DVA_fhir"><text fill="#000000" font-family="Verdana" font-size="14" lengthAdjust="spacing" textLength="60.3818" x="1220.3608" y="151.2139">DVA_fhir</text><path d="M1233.0518,110.2188 L1233.0518,134.2188 M1233.0518,122.2188 L1250.0518,122.2188" fill="none" style="stroke:#000000;stroke-width:1;"/><ellipse cx="1262.0518" cy="122.2188" fill="#FFFFFF" rx="12" ry="12" style="stroke:#000000;stroke-width:1;"/></g><g class="participant participant-tail" data-participant="DVA_fhir"><text fill="#000000" font-family="Verdana" font-size="14" lengthAdjust="spacing" textLength="60.3818" x="1220.3608" y="1301.2217">DVA_fhir</text><path d="M1233.0518,1308.5234 L1233.0518,1332.5234 M1233.0518,1320.5234 L1250.0518,1320.5234" fill="none" style="stroke:#000000;stroke-width:1;"/><ellipse cx="1262.0518" cy="1320.5234" fill="#FFFFFF" rx="12" ry="12" style="stroke:#000000;stroke-width:1;"/></g><path d="M20,171.5156 L151.6919,171.5156 L151.6919,178.6484 L141.6919,188.6484 L15,188.6484 L15,176.5156 A5,5 0 0 1 20,171.5156" fill="#FFFFFF" style="stroke:#000000;stroke-width:1;"/><rect fill="none" height="46.2656" rx="5" ry="5" style="stroke:#000000;stroke-width:1;" width="931.4126" x="15" y="171.5156"/><text fill="#000000" font-family="Verdana" font-size="13" font-weight="bold" lengthAdjust="spacing" textLength="91.6919" x="30" y="184.5825">login at PGO</text><g class="message" data-participant-1="Browser" data-participant-2="PGO"><polygon fill="#000000" points="906.2573,205.7813,916.2573,209.7813,906.2573,213.7813,910.2573,209.7813" style="stroke:#000000;stroke-width:1;"/><line style="stroke:#000000;stroke-width:2;" x1="56.5195" x2="912.2573" y1="209.7813" y2="209.7813"/><text fill="#000000" font-family="Verdana" font-size="13" lengthAdjust="spacing" textLength="31.6685" x="63.5195" y="204.7153">login</text></g><path d="M20,231.7813 L144.9316,231.7813 L144.9316,238.9141 L134.9316,248.9141 L15,248.9141 L15,236.7813 A5,5 0 0 1 20,231.7813" fill="#FFFFFF" style="stroke:#000000;stroke-width:1;"/><rect fill="none" height="285.3281" rx="5" ry="5" style="stroke:#000000;stroke-width:1;" width="1281.7427" x="15" y="231.7813"/><text fill="#000000" font-family="Verdana" font-size="13" font-weight="bold" lengthAdjust="spacing" textLength="84.9316" x="30" y="244.8481">verzamelen</text><g class="message" data-participant-1="PGO" data-participant-2="DVA"><polygon fill="#000000" points="430.2813,266.0469,420.2813,270.0469,430.2813,274.0469,426.2813,270.0469" style="stroke:#000000;stroke-width:1;"/><line style="stroke:#000000;stroke-width:2;" x1="424.2813" x2="917.2573" y1="270.0469" y2="270.0469"/><text fill="#000000" font-family="Verdana" font-size="13" lengthAdjust="spacing" textLength="76.3369" x="436.2813" y="264.981">verzamelen</text></g><g class="message" data-participant-1="DVA" data-participant-2="DigID"><polygon fill="#000000" points="1176.1279,295.1797,1186.1279,299.1797,1176.1279,303.1797,1180.1279,299.1797" style="stroke:#000000;stroke-width:1;"/><line style="stroke:#000000;stroke-width:2;" x1="419.2813" x2="1182.1279" y1="299.1797" y2="299.1797"/><text fill="#000000" font-family="Verdana" font-size="13" lengthAdjust="spacing" textLength="56.1577" x="426.2813" y="294.1138">inloggen</text></g><g class="message" data-participant-1="DigID" data-participant-2="Browser"><polygon fill="#000000" points="67.5195,324.3125,57.5195,328.3125,67.5195,332.3125,63.5195,328.3125" style="stroke:#000000;stroke-width:1;"/><line style="stroke:#000000;stroke-width:2;" x1="61.5195" x2="1187.1279" y1="328.3125" y2="328.3125"/><text fill="#000000" font-family="Verdana" font-size="13" lengthAdjust="spacing" textLength="72.0396" x="73.5195" y="323.2466">credentials</text></g><g class="message" data-participant-1="DigID" data-participant-2="Browser"><polygon fill="#000000" points="67.5195,353.4453,57.5195,357.4453,67.5195,361.4453,63.5195,357.4453" style="stroke:#000000;stroke-width:1;"/><line style="stroke:#000000;stroke-width:2;" x1="61.5195" x2="1187.1279" y1="357.4453" y2="357.4453"/><text fill="#000000" font-family="Verdana" font-size="13" lengthAdjust="spacing" textLength="19.957" x="73.5195" y="352.3794">NO</text><text fill="#000000" font-family="Verdana" font-size="13" lengthAdjust="spacing" textLength="4.1323" x="93.4766" y="352.3794">&#160;</text><text fill="#000000" font-family="Verdana" font-size="13" lengthAdjust="spacing" textLength="44.1226" x="97.6089" y="352.3794">Cookie</text></g><g class="message" data-participant-1="Browser" data-participant-2="DigID"><polygon fill="#000000" points="1176.1279,367.4453,1186.1279,371.4453,1176.1279,375.4453,1180.1279,371.4453" style="stroke:#000000;stroke-width:1;"/><line style="stroke:#000000;stroke-width:2;stroke-dasharray:2.0,2.0;" x1="56.5195" x2="1182.1279" y1="371.4453" y2="371.4453"/></g><g class="message" data-participant-1="DigID" data-participant-2="DVA"><polygon fill="#000000" points="430.2813,396.5781,420.2813,400.5781,430.2813,404.5781,426.2813,400.5781" style="stroke:#000000;stroke-width:1;"/><line style="stroke:#000000;stroke-width:2;stroke-dasharray:2.0,2.0;" x1="424.2813" x2="1187.1279" y1="400.5781" y2="400.5781"/><text fill="#000000" font-family="Verdana" font-size="13" lengthAdjust="spacing" textLength="55.1802" x="436.2813" y="395.5122">id_token</text></g><g class="message" data-participant-1="DVA" data-participant-2="Browser"><polygon fill="#000000" points="67.5195,436.2773,57.5195,440.2773,67.5195,444.2773,63.5195,440.2773" style="stroke:#000000;stroke-width:1;"/><line style="stroke:#000000;stroke-width:2;" x1="61.5195" x2="418.2813" y1="440.2773" y2="440.2773"/><text fill="#000000" font-family="Verdana" font-size="13" font-weight="bold" lengthAdjust="spacing" textLength="27.1108" x="73.5195" y="435.2114">SET</text><text fill="#000000" font-family="Verdana" font-size="13" font-weight="bold" lengthAdjust="spacing" textLength="4.5259" x="100.6304" y="435.2114">&#160;</text><text fill="#000000" font-family="Verdana" font-size="13" font-weight="bold" lengthAdjust="spacing" textLength="49.3213" x="105.1563" y="435.2114">Cookie</text></g><path d="M424,418.5781 L424,448.5781 A5,5 0 0 0 429,453.5781 L747,453.5781 A5,5 0 0 0 752,448.5781 L752,423.5781 L742,413.5781 L429,413.5781 A5,5 0 0 0 424,418.5781" fill="#FFFFFF" style="stroke:#000000;stroke-width:1;"/><path d="M742,413.5781 L742,421.0781 A2.5,2.5 0 0 0 744.5,423.5781 L752,423.5781 L742,413.5781" fill="#FFFFFF" style="stroke:#000000;stroke-width:1;"/><text fill="#000000" font-family="Verdana" font-size="13" lengthAdjust="spacing" textLength="307.0742" x="430" y="430.645">Cookie wordt nu WEL gezet tijdens verzamelen</text><text fill="#000000" font-family="Verdana" font-size="13" lengthAdjust="spacing" textLength="235.9424" x="430" y="445.7778">voor latere correlatie met otp_token</text><g class="message" data-participant-1="DVA" data-participant-2="PGO"><polygon fill="#000000" points="906.2573,475.9766,916.2573,479.9766,906.2573,483.9766,910.2573,479.9766" style="stroke:#000000;stroke-width:1;"/><line style="stroke:#000000;stroke-width:2;stroke-dasharray:2.0,2.0;" x1="419.2813" x2="912.2573" y1="479.9766" y2="479.9766"/><text fill="#000000" font-family="Verdana" font-size="13" lengthAdjust="spacing" textLength="87.1216" x="426.2813" y="474.9106">access_token</text></g><g class="message" data-participant-1="PGO" data-participant-2="DVA_fhir"><polygon fill="#000000" points="1241.5518,505.1094,1251.5518,509.1094,1241.5518,513.1094,1245.5518,509.1094" style="stroke:#000000;stroke-width:1;"/><line style="stroke:#000000;stroke-width:2;" x1="918.2573" x2="1247.5518" y1="509.1094" y2="509.1094"/><text fill="#000000" font-family="Verdana" font-size="13" lengthAdjust="spacing" textLength="21.3472" x="925.2573" y="504.0435">get</text><text fill="#000000" font-family="Verdana" font-size="13" lengthAdjust="spacing" textLength="4.1323" x="946.6045" y="504.0435">&#160;</text><text fill="#000000" font-family="Verdana" font-size="13" lengthAdjust="spacing" textLength="30.1196" x="950.7368" y="504.0435">FHIR</text><text fill="#000000" font-family="Verdana" font-size="13" lengthAdjust="spacing" textLength="4.1323" x="980.8564" y="504.0435">&#160;</text><text fill="#000000" font-family="Verdana" font-size="13" lengthAdjust="spacing" textLength="34.1377" x="984.9888" y="504.0435">tasks</text></g><path d="M20,531.1094 L216.1016,531.1094 L216.1016,538.2422 L206.1016,548.2422 L15,548.2422 L15,536.1094 A5,5 0 0 1 20,531.1094" fill="#FFFFFF" style="stroke:#000000;stroke-width:1;"/><rect fill="none" height="330.9922" rx="5" ry="5" style="stroke:#000000;stroke-width:1;" width="1290.5981" x="15" y="531.1094"/><text fill="#000000" font-family="Verdana" font-size="13" font-weight="bold" lengthAdjust="spacing" textLength="156.1016" x="30" y="544.1763">launch voorbereiding</text><g class="message" data-participant-1="Browser" data-participant-2="PGO"><polygon fill="#000000" points="906.2573,565.375,916.2573,569.375,906.2573,573.375,910.2573,569.375" style="stroke:#000000;stroke-width:1;"/><line style="stroke:#000000;stroke-width:2;" x1="56.5195" x2="912.2573" y1="569.375" y2="569.375"/><text fill="#000000" font-family="Verdana" font-size="13" lengthAdjust="spacing" textLength="29.0469" x="63.5195" y="564.3091">click</text><text fill="#000000" font-family="Verdana" font-size="13" lengthAdjust="spacing" textLength="4.1323" x="92.5664" y="564.3091">&#160;</text><text fill="#000000" font-family="Verdana" font-size="13" lengthAdjust="spacing" textLength="30.2783" x="96.6987" y="564.3091">start</text><text fill="#000000" font-family="Verdana" font-size="13" lengthAdjust="spacing" textLength="4.1323" x="126.9771" y="564.3091">&#160;</text><text fill="#000000" font-family="Verdana" font-size="13" lengthAdjust="spacing" textLength="48.7183" x="131.1094" y="564.3091">module</text></g><g class="message" data-participant-1="PGO" data-participant-2="PGO"><line style="stroke:#000000;stroke-width:2;" x1="918.2573" x2="960.2573" y1="613.6406" y2="613.6406"/><line style="stroke:#000000;stroke-width:2;" x1="960.2573" x2="960.2573" y1="613.6406" y2="626.6406"/><line style="stroke:#000000;stroke-width:2;" x1="919.2573" x2="960.2573" y1="626.6406" y2="626.6406"/><polygon fill="#000000" points="929.2573,622.6406,919.2573,626.6406,929.2573,630.6406,925.2573,626.6406" style="stroke:#000000;stroke-width:1;"/><text fill="#000000" font-family="Verdana" font-size="13" lengthAdjust="spacing" textLength="41.5518" x="925.2573" y="593.4419">create</text><text fill="#000000" font-family="Verdana" font-size="13" lengthAdjust="spacing" textLength="4.1323" x="966.8091" y="593.4419">&#160;</text><text fill="#000000" font-family="Verdana" font-size="13" lengthAdjust="spacing" textLength="32.9316" x="970.9414" y="593.4419">state</text><text fill="#000000" font-family="Verdana" font-size="13" lengthAdjust="spacing" textLength="4.1323" x="1003.873" y="593.4419">&#160;</text><text fill="#000000" font-family="Verdana" font-size="13" lengthAdjust="spacing" textLength="24.4575" x="1008.0054" y="593.4419">and</text><text fill="#000000" font-family="Verdana" font-size="13" lengthAdjust="spacing" textLength="4.1323" x="1032.4629" y="593.4419">&#160;</text><text fill="#000000" font-family="Verdana" font-size="13" lengthAdjust="spacing" textLength="28.355" x="1036.5952" y="593.4419">bind</text><text fill="#000000" font-family="Verdana" font-size="13" lengthAdjust="spacing" textLength="4.1323" x="1064.9502" y="593.4419">&#160;</text><text fill="#000000" font-family="Verdana" font-size="13" lengthAdjust="spacing" textLength="8.709" x="1069.0825" y="593.4419">it</text><text fill="#000000" font-family="Verdana" font-size="13" lengthAdjust="spacing" textLength="4.1323" x="1077.7915" y="593.4419">&#160;</text><text fill="#000000" font-family="Verdana" font-size="13" lengthAdjust="spacing" textLength="13.0508" x="1081.9238" y="593.4419">to</text><text fill="#000000" font-family="Verdana" font-size="13" lengthAdjust="spacing" textLength="4.1323" x="1094.9746" y="593.4419">&#160;</text><text fill="#000000" font-family="Verdana" font-size="13" lengthAdjust="spacing" textLength="21.3345" x="1099.1069" y="593.4419">the</text><text fill="#000000" font-family="Verdana" font-size="13" lengthAdjust="spacing" textLength="28.1455" x="925.2573" y="608.5747">PGO</text><text fill="#000000" font-family="Verdana" font-size="13" lengthAdjust="spacing" textLength="4.1323" x="953.4028" y="608.5747">&#160;</text><text fill="#000000" font-family="Verdana" font-size="13" lengthAdjust="spacing" textLength="48.1216" x="957.5352" y="608.5747">session</text></g><g class="message" data-participant-1="PGO" data-participant-2="DVA"><polygon fill="#000000" points="430.2813,727.4375,420.2813,731.4375,430.2813,735.4375,426.2813,731.4375" style="stroke:#000000;stroke-width:1;"/><line style="stroke:#000000;stroke-width:2;" x1="424.2813" x2="917.2573" y1="731.4375" y2="731.4375"/><text fill="#000000" font-family="Verdana" font-size="13" font-weight="bold" lengthAdjust="spacing" textLength="44.5161" x="436.2813" y="650.7075">Token</text><text fill="#000000" font-family="Verdana" font-size="13" font-weight="bold" lengthAdjust="spacing" textLength="4.5259" x="480.7974" y="650.7075">&#160;</text><text fill="#000000" font-family="Verdana" font-size="13" font-weight="bold" lengthAdjust="spacing" textLength="70.3765" x="485.3232" y="650.7075">Exchange</text><text fill="#000000" font-family="Verdana" font-size="13" font-weight="bold" lengthAdjust="spacing" textLength="4.5259" x="555.6997" y="650.7075">&#160;</text><text fill="#000000" font-family="Verdana" font-size="13" font-weight="bold" lengthAdjust="spacing" textLength="60.1567" x="560.2256" y="650.7075">Request</text><text fill="#000000" font-family="Verdana" font-size="13" lengthAdjust="spacing" textLength="454.5684" x="436.2813" y="665.8403">/token?grant_type=urn:ietf:params:oauth:grant-type:token-exchange</text><text fill="#000000" font-family="Verdana" font-size="13" lengthAdjust="spacing" textLength="215.1284" x="436.2813" y="680.9731">&amp;subject_token={access_token}</text><text fill="#000000" font-family="Verdana" font-size="13" lengthAdjust="spacing" textLength="474.9761" x="436.2813" y="696.106">&amp;requested_token_type=urn:ietf:params:oauth:token-type:access_token</text><text fill="#000000" font-family="Verdana" font-size="13" lengthAdjust="spacing" textLength="91.4507" x="436.2813" y="711.2388">Authorization:</text><text fill="#000000" font-family="Verdana" font-size="13" lengthAdjust="spacing" textLength="4.1323" x="527.7319" y="711.2388">&#160;</text><text fill="#000000" font-family="Verdana" font-size="13" lengthAdjust="spacing" textLength="43.5703" x="531.8643" y="711.2388">Bearer</text><text fill="#000000" font-family="Verdana" font-size="13" lengthAdjust="spacing" textLength="103.6636" x="436.2813" y="726.3716">{access_token}</text></g><path d="M923,671.9063 L923,701.9063 A5,5 0 0 0 928,706.9063 L1285,706.9063 A5,5 0 0 0 1290,701.9063 L1290,676.9063 L1280,666.9063 L928,666.9063 A5,5 0 0 0 923,671.9063" fill="#FFFFFF" style="stroke:#000000;stroke-width:1;"/><path d="M1280,666.9063 L1280,674.4063 A2.5,2.5 0 0 0 1282.5,676.9063 L1290,676.9063 L1280,666.9063" fill="#FFFFFF" style="stroke:#000000;stroke-width:1;"/><text fill="#000000" font-family="Verdana" font-size="13" lengthAdjust="spacing" textLength="346.3408" x="929" y="683.9731">RFC 8693 Token Exchange voor impersonation token</text><text fill="#000000" font-family="Verdana" font-size="13" lengthAdjust="spacing" textLength="294.9058" x="929" y="699.106">PGO gebruikt access_token als subject_token</text><g class="message" data-participant-1="DVA" data-participant-2="DVA"><line style="stroke:#000000;stroke-width:2;" x1="419.2813" x2="461.2813" y1="760.5703" y2="760.5703"/><line style="stroke:#000000;stroke-width:2;" x1="461.2813" x2="461.2813" y1="760.5703" y2="773.5703"/><line style="stroke:#000000;stroke-width:2;" x1="420.2813" x2="461.2813" y1="773.5703" y2="773.5703"/><polygon fill="#000000" points="430.2813,769.5703,420.2813,773.5703,430.2813,777.5703,426.2813,773.5703" style="stroke:#000000;stroke-width:1;"/><text fill="#000000" font-family="Verdana" font-size="13" lengthAdjust="spacing" textLength="58.8936" x="426.2813" y="755.5044">generate</text><text fill="#000000" font-family="Verdana" font-size="13" lengthAdjust="spacing" textLength="4.1323" x="485.1748" y="755.5044">&#160;</text><text fill="#000000" font-family="Verdana" font-size="13" lengthAdjust="spacing" textLength="93.7041" x="489.3071" y="755.5044">impersonation</text><text fill="#000000" font-family="Verdana" font-size="13" lengthAdjust="spacing" textLength="4.1323" x="583.0112" y="755.5044">&#160;</text><text fill="#000000" font-family="Verdana" font-size="13" lengthAdjust="spacing" textLength="36.8164" x="587.1436" y="755.5044">token</text></g><g class="message" data-participant-1="DVA" data-participant-2="PGO"><polygon fill="#000000" points="906.2573,839.5352,916.2573,843.5352,906.2573,847.5352,910.2573,843.5352" style="stroke:#000000;stroke-width:1;"/><line style="stroke:#000000;stroke-width:2;stroke-dasharray:2.0,2.0;" x1="419.2813" x2="912.2573" y1="843.5352" y2="843.5352"/><text fill="#000000" font-family="Verdana" font-size="13" font-weight="bold" lengthAdjust="spacing" textLength="44.5161" x="426.2813" y="808.2036">Token</text><text fill="#000000" font-family="Verdana" font-size="13" font-weight="bold" lengthAdjust="spacing" textLength="4.5259" x="470.7974" y="808.2036">&#160;</text><text fill="#000000" font-family="Verdana" font-size="13" font-weight="bold" lengthAdjust="spacing" textLength="70.3765" x="475.3232" y="808.2036">Exchange</text><text fill="#000000" font-family="Verdana" font-size="13" font-weight="bold" lengthAdjust="spacing" textLength="4.5259" x="545.6997" y="808.2036">&#160;</text><text fill="#000000" font-family="Verdana" font-size="13" font-weight="bold" lengthAdjust="spacing" textLength="70.6113" x="550.2256" y="808.2036">Response</text><text fill="#000000" font-family="Verdana" font-size="13" lengthAdjust="spacing" textLength="87.1216" x="426.2813" y="823.3364">access_token</text><text fill="#000000" font-family="Verdana" font-size="13" lengthAdjust="spacing" textLength="4.1323" x="513.4028" y="823.3364">&#160;</text><text fill="#000000" font-family="Verdana" font-size="13" lengthAdjust="spacing" textLength="19.811" x="517.5352" y="823.3364">(as</text><text fill="#000000" font-family="Verdana" font-size="13" lengthAdjust="spacing" textLength="4.1323" x="537.3462" y="823.3364">&#160;</text><text fill="#000000" font-family="Verdana" font-size="13" lengthAdjust="spacing" textLength="73.8232" x="541.4785" y="823.3364">otp_token),</text><text fill="#000000" font-family="Verdana" font-size="13" lengthAdjust="spacing" textLength="76.4893" x="426.2813" y="838.4692">token_type,</text><text fill="#000000" font-family="Verdana" font-size="13" lengthAdjust="spacing" textLength="4.1323" x="502.7705" y="838.4692">&#160;</text><text fill="#000000" font-family="Verdana" font-size="13" lengthAdjust="spacing" textLength="66.022" x="506.9028" y="838.4692">expires_in</text></g><path d="M923,791.5703 L923,851.5703 A5,5 0 0 0 928,856.5703 L1246,856.5703 A5,5 0 0 0 1251,851.5703 L1251,796.5703 L1241,786.5703 L928,786.5703 A5,5 0 0 0 923,791.5703" fill="#FFFFFF" style="stroke:#000000;stroke-width:1;"/><path d="M1241,786.5703 L1241,794.0703 A2.5,2.5 0 0 0 1243.5,796.5703 L1251,796.5703 L1241,786.5703" fill="#FFFFFF" style="stroke:#000000;stroke-width:1;"/><text fill="#000000" font-family="Verdana" font-size="13" lengthAdjust="spacing" textLength="306.8711" x="929" y="803.6372">De impersonation token uit de token exchange</text><text fill="#000000" font-family="Verdana" font-size="13" lengthAdjust="spacing" textLength="191.1025" x="929" y="818.77">wordt gebruikt als otp_token.</text><text fill="#000000" font-family="Verdana" font-size="13" lengthAdjust="spacing" textLength="307.6709" x="929" y="833.9028">Het is opaque en "just a number", niet een JWT</text><text fill="#000000" font-family="Verdana" font-size="13" lengthAdjust="spacing" textLength="279.0303" x="929" y="849.0356">omdat het in de FE channel gebruikt wordt</text><path d="M20,876.1016 L355.9849,876.1016 L355.9849,883.2344 L345.9849,893.2344 L15,893.2344 L15,881.1016 A5,5 0 0 1 20,876.1016" fill="#FFFFFF" style="stroke:#000000;stroke-width:1;"/><rect fill="none" height="396.125" rx="5" ry="5" style="stroke:#000000;stroke-width:1;" width="1150.895" x="15" y="876.1016"/><text fill="#000000" font-family="Verdana" font-size="13" font-weight="bold" lengthAdjust="spacing" textLength="295.9849" x="30" y="889.1685">launch naar module met SMART on FHIR</text><g class="message" data-participant-1="PGO" data-participant-2="Module"><polygon fill="#000000" points="1115.4414,940.6328,1125.4414,944.6328,1115.4414,948.6328,1119.4414,944.6328" style="stroke:#000000;stroke-width:1;"/><line style="stroke:#000000;stroke-width:2;" x1="918.2573" x2="1121.4414" y1="944.6328" y2="944.6328"/><text fill="#000000" font-family="Verdana" font-size="13" lengthAdjust="spacing" textLength="173.6782" x="925.2573" y="909.3013">/launch?launch=otp_token</text><text fill="#000000" font-family="Verdana" font-size="13" lengthAdjust="spacing" textLength="29.8848" x="925.2573" y="924.4341">(302</text><text fill="#000000" font-family="Verdana" font-size="13" lengthAdjust="spacing" textLength="4.1323" x="955.1421" y="924.4341">&#160;</text><text fill="#000000" font-family="Verdana" font-size="13" lengthAdjust="spacing" textLength="12.5303" x="959.2744" y="924.4341">of</text><text fill="#000000" font-family="Verdana" font-size="13" lengthAdjust="spacing" textLength="155.6509" x="925.2573" y="939.5669">FORM_POST_REDIRECT)</text></g><g class="message" data-participant-1="Module" data-participant-2="Browser"><polygon fill="#000000" points="67.5195,969.7656,57.5195,973.7656,67.5195,977.7656,63.5195,973.7656" style="stroke:#000000;stroke-width:1;"/><line style="stroke:#000000;stroke-width:2;" x1="61.5195" x2="1126.4414" y1="973.7656" y2="973.7656"/><text fill="#000000" font-family="Verdana" font-size="13" lengthAdjust="spacing" textLength="24.813" x="73.5195" y="968.6997">302</text><text fill="#000000" font-family="Verdana" font-size="13" lengthAdjust="spacing" textLength="4.1323" x="98.3325" y="968.6997">&#160;</text><text fill="#000000" font-family="Verdana" font-size="13" lengthAdjust="spacing" textLength="29.5166" x="102.4648" y="968.6997">naar</text><text fill="#000000" font-family="Verdana" font-size="13" lengthAdjust="spacing" textLength="4.1323" x="131.9814" y="968.6997">&#160;</text><text fill="#000000" font-family="Verdana" font-size="13" lengthAdjust="spacing" textLength="27.7964" x="136.1138" y="968.6997">DVA</text></g><g class="message" data-participant-1="Browser" data-participant-2="DVA"><polygon fill="#000000" points="407.2813,998.8984,417.2813,1002.8984,407.2813,1006.8984,411.2813,1002.8984" style="stroke:#000000;stroke-width:1;"/><line style="stroke:#000000;stroke-width:2;" x1="56.5195" x2="413.2813" y1="1002.8984" y2="1002.8984"/><text fill="#000000" font-family="Verdana" font-size="13" lengthAdjust="spacing" textLength="338.7617" x="63.5195" y="997.8325">/authorize?launch=otp_token&amp;response_type=code</text></g><g class="message" data-participant-1="DVA" data-participant-2="DVA"><line style="stroke:#000000;stroke-width:2;" x1="419.2813" x2="461.2813" y1="1047.1641" y2="1047.1641"/><line style="stroke:#000000;stroke-width:2;" x1="461.2813" x2="461.2813" y1="1047.1641" y2="1060.1641"/><line style="stroke:#000000;stroke-width:2;" x1="420.2813" x2="461.2813" y1="1060.1641" y2="1060.1641"/><polygon fill="#000000" points="430.2813,1056.1641,420.2813,1060.1641,430.2813,1064.1641,426.2813,1060.1641" style="stroke:#000000;stroke-width:1;"/><text fill="#000000" font-family="Verdana" font-size="13" lengthAdjust="spacing" textLength="58.4619" x="426.2813" y="1026.9653">correlate</text><text fill="#000000" font-family="Verdana" font-size="13" lengthAdjust="spacing" textLength="4.1323" x="484.7432" y="1026.9653">&#160;</text><text fill="#000000" font-family="Verdana" font-size="13" lengthAdjust="spacing" textLength="64.6191" x="488.8755" y="1026.9653">otp_token</text><text fill="#000000" font-family="Verdana" font-size="13" lengthAdjust="spacing" textLength="4.1323" x="553.4946" y="1026.9653">&#160;</text><text fill="#000000" font-family="Verdana" font-size="13" lengthAdjust="spacing" textLength="27.5806" x="557.627" y="1026.9653">with</text><text fill="#000000" font-family="Verdana" font-size="13" lengthAdjust="spacing" textLength="44.1226" x="426.2813" y="1042.0981">Cookie</text></g><path d="M596.9263,1024.3984 L596.9263,1054.3984 A5,5 0 0 0 601.9263,1059.3984 L915.9263,1059.3984 A5,5 0 0 0 920.9263,1054.3984 L920.9263,1029.3984 L910.9263,1019.3984 L601.9263,1019.3984 A5,5 0 0 0 596.9263,1024.3984" fill="#FFFFFF" style="stroke:#000000;stroke-width:1;"/><path d="M910.9263,1019.3984 L910.9263,1026.8984 A2.5,2.5 0 0 0 913.4263,1029.3984 L920.9263,1029.3984 L910.9263,1019.3984" fill="#FFFFFF" style="stroke:#000000;stroke-width:1;"/><text fill="#000000" font-family="Verdana" font-size="13" lengthAdjust="spacing" textLength="262.812" x="602.9263" y="1036.4653">Cookie bestaat al sinds verzamelen fase</text><text fill="#000000" font-family="Verdana" font-size="13" lengthAdjust="spacing" textLength="303.2847" x="602.9263" y="1051.5981">en kan nu gecorreleerd worden met otp_token</text><g class="message" data-participant-1="DVA" data-participant-2="Browser"><polygon fill="#000000" points="67.5195,1100.4297,57.5195,1104.4297,67.5195,1108.4297,63.5195,1104.4297" style="stroke:#000000;stroke-width:1;"/><line style="stroke:#000000;stroke-width:2;stroke-dasharray:2.0,2.0;" x1="61.5195" x2="418.2813" y1="1104.4297" y2="1104.4297"/><text fill="#000000" font-family="Verdana" font-size="13" lengthAdjust="spacing" textLength="24.813" x="73.5195" y="1084.231">302</text><text fill="#000000" font-family="Verdana" font-size="13" lengthAdjust="spacing" textLength="209.5234" x="73.5195" y="1099.3638">{redirect_uri}?code=x&amp;state=y</text></g><g class="message" data-participant-1="Browser" data-participant-2="Module"><polygon fill="#000000" points="1115.4414,1144.6953,1125.4414,1148.6953,1115.4414,1152.6953,1119.4414,1148.6953" style="stroke:#000000;stroke-width:1;"/><line style="stroke:#000000;stroke-width:2;stroke-dasharray:2.0,2.0;" x1="56.5195" x2="1121.4414" y1="1148.6953" y2="1148.6953"/><text fill="#000000" font-family="Verdana" font-size="13" lengthAdjust="spacing" textLength="26.2285" x="63.5195" y="1128.4966">GET</text><text fill="#000000" font-family="Verdana" font-size="13" lengthAdjust="spacing" textLength="209.5234" x="63.5195" y="1143.6294">{redirect_uri}?code=x&amp;state=y</text></g><g class="message" data-participant-1="Module" data-participant-2="DVA"><polygon fill="#000000" points="430.2813,1173.8281,420.2813,1177.8281,430.2813,1181.8281,426.2813,1177.8281" style="stroke:#000000;stroke-width:1;"/><line style="stroke:#000000;stroke-width:2;" x1="424.2813" x2="1126.4414" y1="1177.8281" y2="1177.8281"/><text fill="#000000" font-family="Verdana" font-size="13" lengthAdjust="spacing" textLength="185.8911" x="436.2813" y="1172.7622">/token?code=x&amp;client_creds</text></g><g class="message" data-participant-1="DVA" data-participant-2="DVA"><line style="stroke:#000000;stroke-width:2;" x1="419.2813" x2="461.2813" y1="1222.0938" y2="1222.0938"/><line style="stroke:#000000;stroke-width:2;" x1="461.2813" x2="461.2813" y1="1222.0938" y2="1235.0938"/><line style="stroke:#000000;stroke-width:2;" x1="420.2813" x2="461.2813" y1="1235.0938" y2="1235.0938"/><polygon fill="#000000" points="430.2813,1231.0938,420.2813,1235.0938,430.2813,1239.0938,426.2813,1235.0938" style="stroke:#000000;stroke-width:1;"/><text fill="#000000" font-family="Verdana" font-size="13" lengthAdjust="spacing" textLength="38.0605" x="426.2813" y="1201.895">check</text><text fill="#000000" font-family="Verdana" font-size="13" lengthAdjust="spacing" textLength="4.1323" x="464.3418" y="1201.895">&#160;</text><text fill="#000000" font-family="Verdana" font-size="13" lengthAdjust="spacing" textLength="72.0396" x="468.4741" y="1201.895">credentials</text><text fill="#000000" font-family="Verdana" font-size="13" lengthAdjust="spacing" textLength="4.1323" x="540.5137" y="1201.895">&#160;</text><text fill="#000000" font-family="Verdana" font-size="13" lengthAdjust="spacing" textLength="10.1372" x="544.646" y="1201.895">&amp;</text><text fill="#000000" font-family="Verdana" font-size="13" lengthAdjust="spacing" textLength="4.1323" x="554.7832" y="1201.895">&#160;</text><text fill="#000000" font-family="Verdana" font-size="13" lengthAdjust="spacing" textLength="41.5518" x="558.9155" y="1201.895">create</text><text fill="#000000" font-family="Verdana" font-size="13" lengthAdjust="spacing" textLength="87.1216" x="426.2813" y="1217.0278">access_token</text></g><g class="message" data-participant-1="DVA" data-participant-2="Module"><polygon fill="#000000" points="1115.4414,1260.2266,1125.4414,1264.2266,1115.4414,1268.2266,1119.4414,1264.2266" style="stroke:#000000;stroke-width:1;"/><line style="stroke:#000000;stroke-width:2;stroke-dasharray:2.0,2.0;" x1="419.2813" x2="1121.4414" y1="1264.2266" y2="1264.2266"/><text fill="#000000" font-family="Verdana" font-size="13" lengthAdjust="spacing" textLength="87.1216" x="426.2813" y="1259.1606">access_token</text><text fill="#000000" font-family="Verdana" font-size="13" lengthAdjust="spacing" textLength="4.1323" x="513.4028" y="1259.1606">&#160;</text><text fill="#000000" font-family="Verdana" font-size="13" lengthAdjust="spacing" textLength="10.1372" x="517.5352" y="1259.1606">&amp;</text><text fill="#000000" font-family="Verdana" font-size="13" lengthAdjust="spacing" textLength="4.1323" x="527.6724" y="1259.1606">&#160;</text><text fill="#000000" font-family="Verdana" font-size="13" lengthAdjust="spacing" textLength="55.1802" x="531.8047" y="1259.1606">id_token</text></g><!--SRC=[XLNRJjj047ttLqnvG3I2SfEgrbAAk2H0rJHHiCeBKhIn1tk9lUlkhaa0yU-TzTgnJH1zIUoTozavSsPik4aHBlwSmaJ943KCKxc4SMuumY7SYGtJ7anHvr9eXE0fHnW74nXXc331TOQGeO50Bb30O6KFO_G-cGJ9agUC2qylkCYPOXdCMRY8bIn4T2vJgM2PS8CjkyQ_1OeGJvMIoo3XuKAWrd3KSYcZGwa4AZWyQ1aojXgHCulnXZyZ71qSU1uB3Q6SKJADoWkbC4gcjhpry-Hol7uUoQX8iN7ZyVM5DxTuJ3tPgDbzmfNdsGfoI6NC1J1JfgWWOE-7VVMTqKCHrTwFg9vPXYaAZnoi7-NpsyUMT7jiKNtWWbB4zjY-MqC5uKEeC49XE4lrEzRVOpYNSi6nkLETjVQkmNaqCxPjDVGwHwztCmYgDBsU9wH1K3nEZEVEO2bLP40KS3lu1J4-am0CVw1RwNP5ZvB8Jvb1XK0TKqZFtCb5chp29ex00hXBrFonaCIdAvU6iB81FY4Q65vTJy4mlT1jcbDMY301YpmdM1vn4Myq9qn9MA0DKmOor_CAmfaLqfsjdNuPNM_EwOTJYH98rjQ9XAerbzrUzdhT8Q2X8JLhq-lTYVsoafDOCM5cXcQeNoZXSpJtVgbUxKjMcCGl7VQiWrz6x66Lx4viwsB-WA5nfFHVsXIzabavDAoQ-X6AIrsYjBFSYLEoIiMVgKzI-726J15lNQYs7AR3S_ZszVlnc_4l-GUUvQYq56KoQ5ePurmLV64wJGPICtGgVAECYcGQ2LIsCUzbxqZedNQu7MRxqO7UOReHvETTQFZR1LpbNA6UqJItwhvu5nyA4ac4rKlTESyDIrDrsaBxubsHbZcTv8pQ1nItzL1eygBfoaZ2MxiWg860PFbv6tWoYsZb93P8MApX02oCmBH1A04R-ZR7Gp2cAkMNqtWpEfq6G6NOeQerxRQX3_ikwCJzzTTNXvtZWoEGzp0SJqUpoVWcc4q75zVJmNdmsNF1dQLYlKjWktvR8rcsTPzLoiCD71AswvjJT2YZhYBgpO8Dgx3a9gdNuERscjEOC6Ox0Pf6kxspu9vfonWicB3xBKQN7b559Qza-i_-wXJyGhkQz4EQBXH_FR6Nxw-sozNIV-fiw9hkIzgy7qSrt3hgt6gfd6YtqRTXPhyHkajJWhJqMjyEsAutNMVPrcNKz-bCodRppQ2w_m40]--></g></svg>