<svg xmlns="http://www.w3.org/2000/svg" xmlns:xlink="http://www.w3.org/1999/xlink" contentStyleType="text/css" data-diagram-type="SEQUENCE" height="1279px" preserveAspectRatio="none" style="width:1333px;height:1279px;background:#FFFFFF;" version="1.1" viewBox="0 0 1333 1279" width="1333px" zoomAndPan="magnify"><title>DVA Proces Flow Optie 2 </title><defs/><g><text fill="#000000" font-family="Verdana" font-size="22" font-weight="bold" lengthAdjust="spacing" textLength="306.8398" x="508.2061" y="35.4209">DVA Proces Flow Optie 2</text><text fill="#000000" font-family="Verdana" font-size="22" font-weight="bold" lengthAdjust="spacing" textLength="1285.5928" x="30.3184" y="61.0303">PGO Proces Flow - PGO als SMART on FHIR Authorization Server met Token Exchange (met DPoP) Short</text><rect fill="#FFFFFF" height="75.3984" rx="5" ry="5" style="stroke:#000000;stroke-width:1;" width="485.8208" x="241.7026" y="125.5156"/><rect fill="#FFFFFF" height="154.7969" rx="5" ry="5" style="stroke:#000000;stroke-width:1;" width="753.5986" x="241.7026" y="214.9141"/><rect fill="#FFFFFF" height="185.0625" rx="5" ry="5" style="stroke:#000000;stroke-width:1;" width="848.5059" x="241.7026" y="383.7109"/><rect fill="#FFFFFF" height="594.4531" rx="5" ry="5" style="stroke:#000000;stroke-width:1;" width="848.5059" x="241.7026" y="582.7734"/><g><title>Browser</title><rect fill="#000000" fill-opacity="0.00000" height="1135.9766" width="8" x="293.2222" y="108.5156"/><line style="stroke:#000000;stroke-width:1;" x1="296.7026" x2="296.7026" y1="108.5156" y2="1244.4922"/></g><g><title>PGO</title><rect fill="#000000" fill-opacity="0.00000" height="1135.9766" width="8" x="681.3682" y="108.5156"/><line style="stroke:#000000;stroke-width:1;" x1="685.2129" x2="685.2129" y1="108.5156" y2="1244.4922"/></g><g><title>DVA</title><rect fill="#000000" fill-opacity="0.00000" height="1135.9766" width="8" x="949.334" y="108.5156"/><line style="stroke:#000000;stroke-width:1;" x1="952.3667" x2="952.3667" y1="108.5156" y2="1244.4922"/></g><g><title>Module</title><rect fill="#000000" fill-opacity="0.00000" height="1135.9766" width="8" x="1033.7549" y="108.5156"/><line style="stroke:#000000;stroke-width:1;" x1="1037.3013" x2="1037.3013" y1="108.5156" y2="1244.4922"/></g><g class="participant participant-head" data-participant="BR"><rect fill="#FFFFFF" height="30.2969" rx="5" ry="5" style="stroke:#000000;stroke-width:1;" width="71.0391" x="261.7026" y="77.2188"/><text fill="#000000" font-family="Verdana" font-size="14" lengthAdjust="spacing" textLength="57.0391" x="268.7026" y="97.2139">Browser</text></g><g class="participant participant-tail" data-participant="BR"><rect fill="#FFFFFF" height="30.2969" rx="5" ry="5" style="stroke:#000000;stroke-width:1;" width="71.0391" x="261.7026" y="1243.4922"/><text fill="#000000" font-family="Verdana" font-size="14" lengthAdjust="spacing" textLength="57.0391" x="268.7026" y="1263.4873">Browser</text></g><g class="participant participant-head" data-participant="PGO"><rect fill="#FFFFFF" height="30.2969" rx="5" ry="5" style="stroke:#000000;stroke-width:1;" width="44.3105" x="663.2129" y="77.2188"/><text fill="#000000" font-family="Verdana" font-size="14" lengthAdjust="spacing" textLength="30.3105" x="670.2129" y="97.2139">PGO</text></g><g class="participant participant-tail" data-participant="PGO"><rect fill="#FFFFFF" height="30.2969" rx="5" ry="5" style="stroke:#000000;stroke-width:1;" width="44.3105" x="663.2129" y="1243.4922"/><text fill="#000000" font-family="Verdana" font-size="14" lengthAdjust="spacing" textLength="30.3105" x="670.2129" y="1263.4873">PGO</text></g><g class="participant participant-head" data-participant="DVA"><rect fill="#FFFFFF" height="30.2969" rx="5" ry="5" style="stroke:#000000;stroke-width:1;" width="43.9346" x="931.3667" y="77.2188"/><text fill="#000000" font-family="Verdana" font-size="14" lengthAdjust="spacing" textLength="29.9346" x="938.3667" y="97.2139">DVA</text></g><g class="participant participant-tail" data-participant="DVA"><rect fill="#FFFFFF" height="30.2969" rx="5" ry="5" style="stroke:#000000;stroke-width:1;" width="43.9346" x="931.3667" y="1243.4922"/><text fill="#000000" font-family="Verdana" font-size="14" lengthAdjust="spacing" textLength="29.9346" x="938.3667" y="1263.4873">DVA</text></g><g class="participant participant-head" data-participant="MOD"><rect fill="#FFFFFF" height="30.2969" rx="5" ry="5" style="stroke:#000000;stroke-width:1;" width="64.9072" x="1005.3013" y="77.2188"/><text fill="#000000" font-family="Verdana" font-size="14" lengthAdjust="spacing" textLength="50.9072" x="1012.3013" y="97.2139">Module</text></g><g class="participant participant-tail" data-participant="MOD"><rect fill="#FFFFFF" height="30.2969" rx="5" ry="5" style="stroke:#000000;stroke-width:1;" width="64.9072" x="1005.3013" y="1243.4922"/><text fill="#000000" font-family="Verdana" font-size="14" lengthAdjust="spacing" textLength="50.9072" x="1012.3013" y="1263.4873">Module</text></g><path d="M246.7026,125.5156 L362.7095,125.5156 L362.7095,132.6484 L352.7095,142.6484 L241.7026,142.6484 L241.7026,130.5156 A5,5 0 0 1 246.7026,125.5156" fill="#FFFFFF" style="stroke:#000000;stroke-width:1;"/><rect fill="none" height="75.3984" rx="5" ry="5" style="stroke:#000000;stroke-width:1;" width="485.8208" x="241.7026" y="125.5156"/><text fill="#000000" font-family="Verdana" font-size="13" font-weight="bold" lengthAdjust="spacing" textLength="76.0068" x="256.7026" y="138.5825">PGO Login</text><g class="message" data-participant-1="BR" data-participant-2="PGO"><polygon fill="#000000" points="673.3682,159.7813,683.3682,163.7813,673.3682,167.7813,677.3682,163.7813" style="stroke:#000000;stroke-width:1;"/><line style="stroke:#000000;stroke-width:2;" x1="297.2222" x2="679.3682" y1="163.7813" y2="163.7813"/><text fill="#000000" font-family="Verdana" font-size="13" lengthAdjust="spacing" textLength="35.2993" x="304.2222" y="158.7153">Login</text><text fill="#000000" font-family="Verdana" font-size="13" lengthAdjust="spacing" textLength="4.1323" x="339.5215" y="158.7153">&#160;</text><text fill="#000000" font-family="Verdana" font-size="13" lengthAdjust="spacing" textLength="15.4756" x="343.6538" y="158.7153">bij</text><text fill="#000000" font-family="Verdana" font-size="13" lengthAdjust="spacing" textLength="4.1323" x="359.1294" y="158.7153">&#160;</text><text fill="#000000" font-family="Verdana" font-size="13" lengthAdjust="spacing" textLength="28.1455" x="363.2617" y="158.7153">PGO</text></g><g class="message" data-participant-1="PGO" data-participant-2="BR"><polygon fill="#000000" points="308.2222,188.9141,298.2222,192.9141,308.2222,196.9141,304.2222,192.9141" style="stroke:#000000;stroke-width:1;"/><line style="stroke:#000000;stroke-width:2;" x1="302.2222" x2="684.3682" y1="192.9141" y2="192.9141"/><text fill="#000000" font-family="Verdana" font-size="13" lengthAdjust="spacing" textLength="28.1455" x="314.2222" y="187.8481">PGO</text><text fill="#000000" font-family="Verdana" font-size="13" lengthAdjust="spacing" textLength="4.1323" x="342.3677" y="187.8481">&#160;</text><text fill="#000000" font-family="Verdana" font-size="13" lengthAdjust="spacing" textLength="39.9268" x="346.5" y="187.8481">sessie</text><text fill="#000000" font-family="Verdana" font-size="13" lengthAdjust="spacing" textLength="4.1323" x="386.4268" y="187.8481">&#160;</text><text fill="#000000" font-family="Verdana" font-size="13" lengthAdjust="spacing" textLength="36.3975" x="390.5591" y="187.8481">actief</text></g><path d="M246.7026,214.9141 L434,214.9141 L434,222.0469 L424,232.0469 L241.7026,232.0469 L241.7026,219.9141 A5,5 0 0 1 246.7026,214.9141" fill="#FFFFFF" style="stroke:#000000;stroke-width:1;"/><rect fill="none" height="154.7969" rx="5" ry="5" style="stroke:#000000;stroke-width:1;" width="753.5986" x="241.7026" y="214.9141"/><text fill="#000000" font-family="Verdana" font-size="13" font-weight="bold" lengthAdjust="spacing" textLength="147.2974" x="256.7026" y="227.981">Initi&#235;le Verzameling</text><g class="message" data-participant-1="PGO" data-participant-2="DVA"><polygon fill="#000000" points="941.334,249.1797,951.334,253.1797,941.334,257.1797,945.334,253.1797" style="stroke:#000000;stroke-width:1;"/><line style="stroke:#000000;stroke-width:2;" x1="685.3682" x2="947.334" y1="253.1797" y2="253.1797"/><text fill="#000000" font-family="Verdana" font-size="13" lengthAdjust="spacing" textLength="77.5366" x="692.3682" y="248.1138">Verzamelen</text><text fill="#000000" font-family="Verdana" font-size="13" lengthAdjust="spacing" textLength="4.1323" x="769.9048" y="248.1138">&#160;</text><text fill="#000000" font-family="Verdana" font-size="13" lengthAdjust="spacing" textLength="63.2036" x="774.0371" y="248.1138">gegevens</text></g><g class="message" data-participant-1="DVA" data-participant-2="BR"><polygon fill="#000000" points="308.2222,278.3125,298.2222,282.3125,308.2222,286.3125,304.2222,282.3125" style="stroke:#000000;stroke-width:1;"/><line style="stroke:#000000;stroke-width:2;" x1="302.2222" x2="952.334" y1="282.3125" y2="282.3125"/><text fill="#000000" font-family="Verdana" font-size="13" lengthAdjust="spacing" textLength="35.7183" x="314.2222" y="277.2466">DigID</text><text fill="#000000" font-family="Verdana" font-size="13" lengthAdjust="spacing" textLength="4.1323" x="349.9404" y="277.2466">&#160;</text><text fill="#000000" font-family="Verdana" font-size="13" lengthAdjust="spacing" textLength="86.3091" x="354.0728" y="277.2466">authenticatie</text></g><g class="message" data-participant-1="DVA" data-participant-2="PGO"><polygon fill="#000000" points="696.3682,307.4453,686.3682,311.4453,696.3682,315.4453,692.3682,311.4453" style="stroke:#000000;stroke-width:1;"/><line style="stroke:#000000;stroke-width:2;stroke-dasharray:2.0,2.0;" x1="690.3682" x2="952.334" y1="311.4453" y2="311.4453"/><text fill="#000000" font-family="Verdana" font-size="13" lengthAdjust="spacing" textLength="34.4424" x="702.3682" y="306.3794">Krijgt</text><text fill="#000000" font-family="Verdana" font-size="13" lengthAdjust="spacing" textLength="4.1323" x="736.8105" y="306.3794">&#160;</text><text fill="#000000" font-family="Verdana" font-size="13" lengthAdjust="spacing" textLength="87.1216" x="740.9429" y="306.3794">access_token</text></g><path d="M689.7026,329.4453 L689.7026,359.4453 A5,5 0 0 0 694.7026,364.4453 L912.7026,364.4453 A5,5 0 0 0 917.7026,359.4453 L917.7026,334.4453 L907.7026,324.4453 L694.7026,324.4453 A5,5 0 0 0 689.7026,329.4453" fill="#FFFFFF" style="stroke:#000000;stroke-width:1;"/><path d="M907.7026,324.4453 L907.7026,331.9453 A2.5,2.5 0 0 0 910.2026,334.4453 L917.7026,334.4453 L907.7026,324.4453" fill="#FFFFFF" style="stroke:#000000;stroke-width:1;"/><text fill="#000000" font-family="Verdana" font-size="13" lengthAdjust="spacing" textLength="207.2129" x="695.7026" y="341.5122">PGO slaat DVA access_token op</text><text fill="#000000" font-family="Verdana" font-size="13" lengthAdjust="spacing" textLength="182.7681" x="695.7026" y="356.645">voor latere Token Exchange</text><path d="M246.7026,383.7109 L470.9688,383.7109 L470.9688,390.8438 L460.9688,400.8438 L241.7026,400.8438 L241.7026,388.7109 A5,5 0 0 1 246.7026,383.7109" fill="#FFFFFF" style="stroke:#000000;stroke-width:1;"/><rect fill="none" height="185.0625" rx="5" ry="5" style="stroke:#000000;stroke-width:1;" width="848.5059" x="241.7026" y="383.7109"/><text fill="#000000" font-family="Verdana" font-size="13" font-weight="bold" lengthAdjust="spacing" textLength="184.2661" x="256.7026" y="396.7778">PGO Launch naar Module</text><g class="message" data-participant-1="BR" data-participant-2="PGO"><polygon fill="#000000" points="673.3682,417.9766,683.3682,421.9766,673.3682,425.9766,677.3682,421.9766" style="stroke:#000000;stroke-width:1;"/><line style="stroke:#000000;stroke-width:2;" x1="297.2222" x2="679.3682" y1="421.9766" y2="421.9766"/><text fill="#000000" font-family="Verdana" font-size="13" lengthAdjust="spacing" textLength="30.9766" x="304.2222" y="416.9106">Click</text><text fill="#000000" font-family="Verdana" font-size="13" lengthAdjust="spacing" textLength="4.1323" x="335.1987" y="416.9106">&#160;</text><text fill="#000000" font-family="Verdana" font-size="13" lengthAdjust="spacing" textLength="30.2783" x="339.3311" y="416.9106">start</text><text fill="#000000" font-family="Verdana" font-size="13" lengthAdjust="spacing" textLength="4.1323" x="369.6094" y="416.9106">&#160;</text><text fill="#000000" font-family="Verdana" font-size="13" lengthAdjust="spacing" textLength="48.7183" x="373.7417" y="416.9106">module</text></g><g class="message" data-participant-1="PGO" data-participant-2="BR"><polygon fill="#000000" points="308.2222,462.2422,298.2222,466.2422,308.2222,470.2422,304.2222,466.2422" style="stroke:#000000;stroke-width:1;"/><line style="stroke:#000000;stroke-width:2;" x1="302.2222" x2="684.3682" y1="466.2422" y2="466.2422"/><text fill="#000000" font-family="Verdana" font-size="13" lengthAdjust="spacing" textLength="24.813" x="314.2222" y="446.0435">302</text><text fill="#000000" font-family="Verdana" font-size="13" lengthAdjust="spacing" textLength="4.1323" x="339.0352" y="446.0435">&#160;</text><text fill="#000000" font-family="Verdana" font-size="13" lengthAdjust="spacing" textLength="50.7939" x="343.1675" y="446.0435">redirect</text><text fill="#000000" font-family="Verdana" font-size="13" lengthAdjust="spacing" textLength="4.1323" x="393.9614" y="446.0435">&#160;</text><text fill="#000000" font-family="Verdana" font-size="13" lengthAdjust="spacing" textLength="29.5166" x="398.0938" y="446.0435">naar</text><text fill="#000000" font-family="Verdana" font-size="13" lengthAdjust="spacing" textLength="4.1323" x="427.6104" y="446.0435">&#160;</text><text fill="#000000" font-family="Verdana" font-size="13" lengthAdjust="spacing" textLength="48.7183" x="431.7427" y="446.0435">module</text><text fill="#000000" font-family="Verdana" font-size="13" lengthAdjust="spacing" textLength="364.146" x="314.2222" y="461.1763">/launch?launch={launch_token}&amp;iss={PGO_FHIR_URL}</text></g><path d="M689.7026,484.2422 L689.7026,514.2422 A5,5 0 0 0 694.7026,519.2422 L892.7026,519.2422 A5,5 0 0 0 897.7026,514.2422 L897.7026,489.2422 L887.7026,479.2422 L694.7026,479.2422 A5,5 0 0 0 689.7026,484.2422" fill="#FFFFFF" style="stroke:#000000;stroke-width:1;"/><path d="M887.7026,479.2422 L887.7026,486.7422 A2.5,2.5 0 0 0 890.2026,489.2422 L897.7026,489.2422 L887.7026,479.2422" fill="#FFFFFF" style="stroke:#000000;stroke-width:1;"/><text fill="#000000" font-family="Verdana" font-size="13" lengthAdjust="spacing" textLength="187.4399" x="695.7026" y="496.3091">PGO genereert launch_token</text><text fill="#000000" font-family="Verdana" font-size="13" lengthAdjust="spacing" textLength="172.7388" x="695.7026" y="511.4419">gekoppeld aan PGO sessie</text><g class="message" data-participant-1="BR" data-participant-2="MOD"><polygon fill="#000000" points="1025.7549,556.7734,1035.7549,560.7734,1025.7549,564.7734,1029.7549,560.7734" style="stroke:#000000;stroke-width:1;"/><line style="stroke:#000000;stroke-width:2;" x1="297.2222" x2="1031.7549" y1="560.7734" y2="560.7734"/><text fill="#000000" font-family="Verdana" font-size="13" lengthAdjust="spacing" textLength="26.2285" x="304.2222" y="540.5747">GET</text><text fill="#000000" font-family="Verdana" font-size="13" lengthAdjust="spacing" textLength="195.8188" x="304.2222" y="555.7075">/launch?launch=launch_token</text></g><path d="M246.7026,582.7734 L603.9712,582.7734 L603.9712,589.9063 L593.9712,599.9063 L241.7026,599.9063 L241.7026,587.7734 A5,5 0 0 1 246.7026,582.7734" fill="#FFFFFF" style="stroke:#000000;stroke-width:1;"/><rect fill="none" height="594.4531" rx="5" ry="5" style="stroke:#000000;stroke-width:1;" width="848.5059" x="241.7026" y="582.7734"/><text fill="#000000" font-family="Verdana" font-size="13" font-weight="bold" lengthAdjust="spacing" textLength="317.2686" x="256.7026" y="595.8403">Module Start SMART on FHIR flow met PGO</text><path d="M649.7026,609.9063 L649.7026,624.9063 A5,5 0 0 0 654.7026,629.9063 L1065.7026,629.9063 A5,5 0 0 0 1070.7026,624.9063 L1070.7026,614.9063 L1060.7026,604.9063 L654.7026,604.9063 A5,5 0 0 0 649.7026,609.9063" fill="#FFFFFF" style="stroke:#000000;stroke-width:1;"/><path d="M1060.7026,604.9063 L1060.7026,612.4063 A2.5,2.5 0 0 0 1063.2026,614.9063 L1070.7026,614.9063 L1060.7026,604.9063" fill="#FFFFFF" style="stroke:#000000;stroke-width:1;"/><text fill="#000000" font-family="Verdana" font-size="13" lengthAdjust="spacing" textLength="130.8188" x="790.791" y="621.9731">SMART on FHIR flow</text><g class="message" data-participant-1="MOD" data-participant-2="BR"><polygon fill="#000000" points="308.2222,652.1719,298.2222,656.1719,308.2222,660.1719,304.2222,656.1719" style="stroke:#000000;stroke-width:1;"/><line style="stroke:#000000;stroke-width:2;" x1="302.2222" x2="1036.7549" y1="656.1719" y2="656.1719"/><text fill="#000000" font-family="Verdana" font-size="13" lengthAdjust="spacing" textLength="24.813" x="314.2222" y="651.106">302</text><text fill="#000000" font-family="Verdana" font-size="13" lengthAdjust="spacing" textLength="4.1323" x="339.0352" y="651.106">&#160;</text><text fill="#000000" font-family="Verdana" font-size="13" lengthAdjust="spacing" textLength="29.5166" x="343.1675" y="651.106">naar</text><text fill="#000000" font-family="Verdana" font-size="13" lengthAdjust="spacing" textLength="4.1323" x="372.6841" y="651.106">&#160;</text><text fill="#000000" font-family="Verdana" font-size="13" lengthAdjust="spacing" textLength="28.1455" x="376.8164" y="651.106">PGO</text></g><g class="message" data-participant-1="BR" data-participant-2="PGO"><polygon fill="#000000" points="673.3682,711.5703,683.3682,715.5703,673.3682,719.5703,677.3682,715.5703" style="stroke:#000000;stroke-width:1;"/><line style="stroke:#000000;stroke-width:2;" x1="297.2222" x2="679.3682" y1="715.5703" y2="715.5703"/><text fill="#000000" font-family="Verdana" font-size="13" lengthAdjust="spacing" textLength="65.6538" x="304.2222" y="680.2388">/authorize</text><text fill="#000000" font-family="Verdana" font-size="13" lengthAdjust="spacing" textLength="298.4922" x="304.2222" y="695.3716">(launch=launch_token&amp;response_type=code)</text><text fill="#000000" font-family="Verdana" font-size="13" lengthAdjust="spacing" textLength="36.2832" x="304.2222" y="710.5044">(front</text><text fill="#000000" font-family="Verdana" font-size="13" lengthAdjust="spacing" textLength="4.1323" x="340.5054" y="710.5044">&#160;</text><text fill="#000000" font-family="Verdana" font-size="13" lengthAdjust="spacing" textLength="56.5132" x="344.6377" y="710.5044">channel)</text></g><g class="message" data-participant-1="PGO" data-participant-2="PGO"><line style="stroke:#000000;stroke-width:2;" x1="685.3682" x2="727.3682" y1="759.8359" y2="759.8359"/><line style="stroke:#000000;stroke-width:2;" x1="727.3682" x2="727.3682" y1="759.8359" y2="772.8359"/><line style="stroke:#000000;stroke-width:2;" x1="686.3682" x2="727.3682" y1="772.8359" y2="772.8359"/><polygon fill="#000000" points="696.3682,768.8359,686.3682,772.8359,696.3682,776.8359,692.3682,772.8359" style="stroke:#000000;stroke-width:1;"/><text fill="#000000" font-family="Verdana" font-size="13" lengthAdjust="spacing" textLength="53.6758" x="692.3682" y="739.6372">Valideer</text><text fill="#000000" font-family="Verdana" font-size="13" lengthAdjust="spacing" textLength="4.1323" x="746.0439" y="739.6372">&#160;</text><text fill="#000000" font-family="Verdana" font-size="13" lengthAdjust="spacing" textLength="28.1455" x="750.1763" y="739.6372">PGO</text><text fill="#000000" font-family="Verdana" font-size="13" lengthAdjust="spacing" textLength="4.1323" x="778.3218" y="739.6372">&#160;</text><text fill="#000000" font-family="Verdana" font-size="13" lengthAdjust="spacing" textLength="39.9268" x="782.4541" y="739.6372">sessie</text><text fill="#000000" font-family="Verdana" font-size="13" lengthAdjust="spacing" textLength="60.6709" x="692.3682" y="754.77">Correleer</text><text fill="#000000" font-family="Verdana" font-size="13" lengthAdjust="spacing" textLength="4.1323" x="753.0391" y="754.77">&#160;</text><text fill="#000000" font-family="Verdana" font-size="13" lengthAdjust="spacing" textLength="86.7598" x="757.1714" y="754.77">launch_token</text></g><path d="M689.7026,790.8359 L689.7026,820.8359 A5,5 0 0 0 694.7026,825.8359 L871.7026,825.8359 A5,5 0 0 0 876.7026,820.8359 L876.7026,795.8359 L866.7026,785.8359 L694.7026,785.8359 A5,5 0 0 0 689.7026,790.8359" fill="#FFFFFF" style="stroke:#000000;stroke-width:1;"/><path d="M866.7026,785.8359 L866.7026,793.3359 A2.5,2.5 0 0 0 869.2026,795.8359 L876.7026,795.8359 L866.7026,785.8359" fill="#FFFFFF" style="stroke:#000000;stroke-width:1;"/><text fill="#000000" font-family="Verdana" font-size="13" lengthAdjust="spacing" textLength="166.8101" x="695.7026" y="802.9028">Browser authenticatie via</text><text fill="#000000" font-family="Verdana" font-size="13" lengthAdjust="spacing" textLength="144.8789" x="695.7026" y="818.0356">bestaande PGO sessie</text><g class="message" data-participant-1="PGO" data-participant-2="BR"><polygon fill="#000000" points="308.2222,863.3672,298.2222,867.3672,308.2222,871.3672,304.2222,867.3672" style="stroke:#000000;stroke-width:1;"/><line style="stroke:#000000;stroke-width:2;" x1="302.2222" x2="684.3682" y1="867.3672" y2="867.3672"/><text fill="#000000" font-family="Verdana" font-size="13" lengthAdjust="spacing" textLength="24.813" x="314.2222" y="847.1685">302</text><text fill="#000000" font-family="Verdana" font-size="13" lengthAdjust="spacing" textLength="209.5234" x="314.2222" y="862.3013">{redirect_uri}?code=x&amp;state=y</text></g><g class="message" data-participant-1="BR" data-participant-2="MOD"><polygon fill="#000000" points="1025.7549,907.6328,1035.7549,911.6328,1025.7549,915.6328,1029.7549,911.6328" style="stroke:#000000;stroke-width:1;"/><line style="stroke:#000000;stroke-width:2;" x1="297.2222" x2="1031.7549" y1="911.6328" y2="911.6328"/><text fill="#000000" font-family="Verdana" font-size="13" lengthAdjust="spacing" textLength="26.2285" x="304.2222" y="891.4341">GET</text><text fill="#000000" font-family="Verdana" font-size="13" lengthAdjust="spacing" textLength="209.5234" x="304.2222" y="906.5669">{redirect_uri}?code=x&amp;state=y</text></g><g class="message" data-participant-1="MOD" data-participant-2="PGO"><polygon fill="#000000" points="696.3682,982.1641,686.3682,986.1641,696.3682,990.1641,692.3682,986.1641" style="stroke:#000000;stroke-width:1;"/><line style="stroke:#000000;stroke-width:2;" x1="690.3682" x2="1036.7549" y1="986.1641" y2="986.1641"/><text fill="#000000" font-family="Verdana" font-size="13" lengthAdjust="spacing" textLength="41.1963" x="702.3682" y="935.6997">/token</text><text fill="#000000" font-family="Verdana" font-size="13" lengthAdjust="spacing" textLength="167.1084" x="702.3682" y="950.8325">(code=x&amp;client_assertion</text><text fill="#000000" font-family="Verdana" font-size="13" lengthAdjust="spacing" textLength="4.1323" x="869.4766" y="950.8325">&#160;</text><text fill="#000000" font-family="Verdana" font-size="13" lengthAdjust="spacing" textLength="19.2715" x="873.6089" y="950.8325">via</text><text fill="#000000" font-family="Verdana" font-size="13" lengthAdjust="spacing" textLength="25.5874" x="702.3682" y="965.9653">RFC</text><text fill="#000000" font-family="Verdana" font-size="13" lengthAdjust="spacing" textLength="4.1323" x="727.9556" y="965.9653">&#160;</text><text fill="#000000" font-family="Verdana" font-size="13" lengthAdjust="spacing" textLength="38.1558" x="732.0879" y="965.9653">7523)</text><text fill="#000000" font-family="Verdana" font-size="13" lengthAdjust="spacing" textLength="92.479" x="702.3682" y="981.0981">(backchannel)</text></g><path d="M655.7026,1004.1641 L655.7026,1019.1641 A5,5 0 0 0 660.7026,1024.1641 L977.7026,1024.1641 A5,5 0 0 0 982.7026,1019.1641 L982.7026,1009.1641 L972.7026,999.1641 L660.7026,999.1641 A5,5 0 0 0 655.7026,1004.1641" fill="#FFFFFF" style="stroke:#000000;stroke-width:1;"/><path d="M972.7026,999.1641 L972.7026,1006.6641 A2.5,2.5 0 0 0 975.2026,1009.1641 L982.7026,1009.1641 L972.7026,999.1641" fill="#FFFFFF" style="stroke:#000000;stroke-width:1;"/><text fill="#000000" font-family="Verdana" font-size="13" lengthAdjust="spacing" textLength="232.8066" x="698.3435" y="1016.231">Token Exchange tijdens /token stap</text><g class="message" data-participant-1="PGO" data-participant-2="DVA"><polygon fill="#000000" points="941.334,1091.8281,951.334,1095.8281,941.334,1099.8281,945.334,1095.8281" style="stroke:#000000;stroke-width:1;"/><line style="stroke:#000000;stroke-width:2;" x1="685.3682" x2="947.334" y1="1095.8281" y2="1095.8281"/><text fill="#000000" font-family="Verdana" font-size="13" lengthAdjust="spacing" textLength="39.6602" x="692.3682" y="1045.3638">Token</text><text fill="#000000" font-family="Verdana" font-size="13" lengthAdjust="spacing" textLength="4.1323" x="732.0283" y="1045.3638">&#160;</text><text fill="#000000" font-family="Verdana" font-size="13" lengthAdjust="spacing" textLength="63.7495" x="736.1606" y="1045.3638">Exchange</text><text fill="#000000" font-family="Verdana" font-size="13" lengthAdjust="spacing" textLength="232.8892" x="692.3682" y="1060.4966">(subject_token=DVA_access_token)</text><text fill="#000000" font-family="Verdana" font-size="13" lengthAdjust="spacing" textLength="243.9658" x="692.3682" y="1075.6294">(actor_token=module_JWT_assertion)</text><text fill="#000000" font-family="Verdana" font-size="13" lengthAdjust="spacing" textLength="92.479" x="692.3682" y="1090.7622">(backchannel)</text></g><g class="message" data-participant-1="DVA" data-participant-2="PGO"><polygon fill="#000000" points="696.3682,1120.9609,686.3682,1124.9609,696.3682,1128.9609,692.3682,1124.9609" style="stroke:#000000;stroke-width:1;"/><line style="stroke:#000000;stroke-width:2;" x1="690.3682" x2="952.334" y1="1124.9609" y2="1124.9609"/><text fill="#000000" font-family="Verdana" font-size="13" lengthAdjust="spacing" textLength="70.7383" x="702.3682" y="1119.895">Delegation</text><text fill="#000000" font-family="Verdana" font-size="13" lengthAdjust="spacing" textLength="4.1323" x="773.1064" y="1119.895">&#160;</text><text fill="#000000" font-family="Verdana" font-size="13" lengthAdjust="spacing" textLength="36.8164" x="777.2388" y="1119.895">token</text></g><g class="message" data-participant-1="PGO" data-participant-2="MOD"><polygon fill="#000000" points="1025.7549,1165.2266,1035.7549,1169.2266,1025.7549,1173.2266,1029.7549,1169.2266" style="stroke:#000000;stroke-width:1;"/><line style="stroke:#000000;stroke-width:2;" x1="685.3682" x2="1031.7549" y1="1169.2266" y2="1169.2266"/><text fill="#000000" font-family="Verdana" font-size="13" lengthAdjust="spacing" textLength="87.1216" x="692.3682" y="1149.0278">access_token</text><text fill="#000000" font-family="Verdana" font-size="13" lengthAdjust="spacing" textLength="4.1323" x="779.4897" y="1149.0278">&#160;</text><text fill="#000000" font-family="Verdana" font-size="13" lengthAdjust="spacing" textLength="73.9058" x="783.6221" y="1149.0278">(gebaseerd</text><text fill="#000000" font-family="Verdana" font-size="13" lengthAdjust="spacing" textLength="4.1323" x="857.5278" y="1149.0278">&#160;</text><text fill="#000000" font-family="Verdana" font-size="13" lengthAdjust="spacing" textLength="16.2056" x="861.6602" y="1149.0278">op</text><text fill="#000000" font-family="Verdana" font-size="13" lengthAdjust="spacing" textLength="68.98" x="692.3682" y="1164.1606">delegation</text><text fill="#000000" font-family="Verdana" font-size="13" lengthAdjust="spacing" textLength="4.1323" x="761.3481" y="1164.1606">&#160;</text><text fill="#000000" font-family="Verdana" font-size="13" lengthAdjust="spacing" textLength="41.8882" x="765.4805" y="1164.1606">token)</text></g><path d="M649.7026,1194.2266 L649.7026,1224.2266 A5,5 0 0 0 654.7026,1229.2266 L1065.7026,1229.2266 A5,5 0 0 0 1070.7026,1224.2266 L1070.7026,1199.2266 L1060.7026,1189.2266 L654.7026,1189.2266 A5,5 0 0 0 649.7026,1194.2266" fill="#FFFFFF" style="stroke:#000000;stroke-width:1;"/><path d="M1060.7026,1189.2266 L1060.7026,1196.7266 A2.5,2.5 0 0 0 1063.2026,1199.2266 L1070.7026,1199.2266 L1060.7026,1189.2266" fill="#FFFFFF" style="stroke:#000000;stroke-width:1;"/><text fill="#000000" font-family="Verdana" font-size="13" lengthAdjust="spacing" textLength="182.5649" x="764.918" y="1206.2935">Module kan nu functioneren</text><text fill="#000000" font-family="Verdana" font-size="13" lengthAdjust="spacing" textLength="181.0732" x="764.918" y="1221.4263">via PGO met DVA resources</text><!--SRC=[VLNRRXen47ttLqpp42LIeb2YgX8IZGWaQTgW8A3fIwILsHqMms9lRI-vAL_Kp-YFTMmlP1VIFgtm6S-SEMV6M64pXDvT1mPQnMZWCbCFS9jRWT24UmamkBgjOSV-X6S6HltES0nAmkNNwo5q2ZjJMZnpA-XeX7g56fPeOQmMAE7YCPvncI8SkBFUG0qEOKGNB6CVx0oN27d6XMHc8MJEDL_2XCUBLAj29bsLAGqFCs6nWXlyLQ2CiQErUXZFHBoGQ0mqAo7-Tgoq92eV6nLWoH_x5CnJ78bdwhJHO8mGAsAHSsbXxvno6jHxm0sS3-iOzU_FwLi7I4OFqBSEz5LIPEYn_csFCURwohsGDogbhi-7SFp5_sw54vY8kI_WpWYYW9R73T4cRtXC3aqPocITx5eAA_xy9ZVlK3_p9MP2fklhpk3M1Y0xKannXT8mX_ZyBUY9zBe7d7n4ITp9I0pmXjftBUQffU8q3IQopbWcbKNG8frPKDCDPPDnRdtPQZ2edAqKUPbnYngtHiDr0ovTjIsl4IzaF0F9kOOWPKsmRaRUWx6aE2m3N5NjjD44ZOdG6DkG8mJTovFC9puBd_PB-0Qgh_l2cFOB9OhSU4S_XZUl_-WrHPelHAfUJS1INAWynom1pcN5kxSsGnCq4SJowc8CMtngsIgI10bWv1kkB-7KRQXRCCVDirLk3Qd4KIdMRZnZZa5LBI-Ior1L-OIN2qx27Rp3S5-ZoPKq6Dcd7DknIl2G8gTQqGOuWoLcXsjZGiexdec4XAk8So-xIciQKTHrDNUbBrUqFh2m4fnDa8Q1omJVLNrxDbxMmn4LMhoUEUBjnttAOB7zjEFH_wFNKfQIUUeaGXaLPuA8HjmGRVzA4baONdRXywVcgHFBFNaRgTxiesn7vGflFQPMp1FQuhAIsu6yllBrU2fXYidSiVSNsXGKLHVKaQ2dHUaI3viIVVivVcEzGxHyGaBFFV8k3Vy1mRYIJb2mzXWSf3ZXXfnEw5s0PElYOHZvBHL2cd835hHNie0fZOcxHqj8OZjDNKt_DqFCQ2nLeQai-mi0]--></g></svg>