<svg xmlns="http://www.w3.org/2000/svg" xmlns:xlink="http://www.w3.org/1999/xlink" contentStyleType="text/css" data-diagram-type="SEQUENCE" height="1125px" preserveAspectRatio="none" style="width:1022px;height:1125px;background:#FFFFFF;" version="1.1" viewBox="0 0 1022 1125" width="1022px" zoomAndPan="magnify"><title>DVA Proces Flow Optie 1 </title><defs/><g><text fill="#000000" font-family="Verdana" font-size="22" font-weight="bold" lengthAdjust="spacing" textLength="306.8398" x="352.3208" y="35.4209">DVA Proces Flow Optie 1</text><text fill="#000000" font-family="Verdana" font-size="22" font-weight="bold" lengthAdjust="spacing" textLength="981.4814" x="22.6592" y="61.0303">DVA Proces Flow - Response Type OTP Mechanisme met Token Exchange Short</text><rect fill="#FFFFFF" height="199.0625" rx="5" ry="5" style="stroke:#000000;stroke-width:1;" width="872.1621" x="29.6128" y="125.5156"/><rect fill="#FFFFFF" height="286.7266" rx="5" ry="5" style="stroke:#000000;stroke-width:1;" width="856.1499" x="130.6519" y="338.5781"/><rect fill="#FFFFFF" height="46.2656" rx="5" ry="5" style="stroke:#000000;stroke-width:1;" width="746.6899" x="130.6519" y="639.3047"/><rect fill="#FFFFFF" height="323.8594" rx="5" ry="5" style="stroke:#000000;stroke-width:1;" width="960.915" x="29.6128" y="699.5703"/><g><title>Browser</title><rect fill="#000000" fill-opacity="0.00000" height="982.1797" width="8" x="81.1323" y="108.5156"/><line style="stroke:#000000;stroke-width:1;" x1="84.6128" x2="84.6128" y1="108.5156" y2="1090.6953"/></g><g><title>PGO</title><rect fill="#000000" fill-opacity="0.00000" height="982.1797" width="8" x="168.8071" y="108.5156"/><line style="stroke:#000000;stroke-width:1;" x1="172.6519" x2="172.6519" y1="108.5156" y2="1090.6953"/></g><g><title>DVA</title><rect fill="#000000" fill-opacity="0.00000" height="982.1797" width="8" x="667.7896" y="108.5156"/><line style="stroke:#000000;stroke-width:1;" x1="670.8223" x2="670.8223" y1="108.5156" y2="1090.6953"/></g><g><title>Module</title><rect fill="#000000" fill-opacity="0.00000" height="982.1797" width="8" x="820.8882" y="108.5156"/><line style="stroke:#000000;stroke-width:1;" x1="824.4346" x2="824.4346" y1="108.5156" y2="1090.6953"/></g><g class="participant participant-head" data-participant="BR"><rect fill="#FFFFFF" height="30.2969" rx="5" ry="5" style="stroke:#000000;stroke-width:1;" width="71.0391" x="49.6128" y="77.2188"/><text fill="#000000" font-family="Verdana" font-size="14" lengthAdjust="spacing" textLength="57.0391" x="56.6128" y="97.2139">Browser</text></g><g class="participant participant-tail" data-participant="BR"><rect fill="#FFFFFF" height="30.2969" rx="5" ry="5" style="stroke:#000000;stroke-width:1;" width="71.0391" x="49.6128" y="1089.6953"/><text fill="#000000" font-family="Verdana" font-size="14" lengthAdjust="spacing" textLength="57.0391" x="56.6128" y="1109.6904">Browser</text></g><g class="participant participant-head" data-participant="PGO"><rect fill="#FFFFFF" height="30.2969" rx="5" ry="5" style="stroke:#000000;stroke-width:1;" width="44.3105" x="150.6519" y="77.2188"/><text fill="#000000" font-family="Verdana" font-size="14" lengthAdjust="spacing" textLength="30.3105" x="157.6519" y="97.2139">PGO</text></g><g class="participant participant-tail" data-participant="PGO"><rect fill="#FFFFFF" height="30.2969" rx="5" ry="5" style="stroke:#000000;stroke-width:1;" width="44.3105" x="150.6519" y="1089.6953"/><text fill="#000000" font-family="Verdana" font-size="14" lengthAdjust="spacing" textLength="30.3105" x="157.6519" y="1109.6904">PGO</text></g><g class="participant participant-head" data-participant="DVA"><rect fill="#FFFFFF" height="30.2969" rx="5" ry="5" style="stroke:#000000;stroke-width:1;" width="43.9346" x="649.8223" y="77.2188"/><text fill="#000000" font-family="Verdana" font-size="14" lengthAdjust="spacing" textLength="29.9346" x="656.8223" y="97.2139">DVA</text></g><g class="participant participant-tail" data-participant="DVA"><rect fill="#FFFFFF" height="30.2969" rx="5" ry="5" style="stroke:#000000;stroke-width:1;" width="43.9346" x="649.8223" y="1089.6953"/><text fill="#000000" font-family="Verdana" font-size="14" lengthAdjust="spacing" textLength="29.9346" x="656.8223" y="1109.6904">DVA</text></g><g class="participant participant-head" data-participant="MOD"><rect fill="#FFFFFF" height="30.2969" rx="5" ry="5" style="stroke:#000000;stroke-width:1;" width="64.9072" x="792.4346" y="77.2188"/><text fill="#000000" font-family="Verdana" font-size="14" lengthAdjust="spacing" textLength="50.9072" x="799.4346" y="97.2139">Module</text></g><g class="participant participant-tail" data-participant="MOD"><rect fill="#FFFFFF" height="30.2969" rx="5" ry="5" style="stroke:#000000;stroke-width:1;" width="64.9072" x="792.4346" y="1089.6953"/><text fill="#000000" font-family="Verdana" font-size="14" lengthAdjust="spacing" textLength="50.9072" x="799.4346" y="1109.6904">Module</text></g><path d="M34.6128,125.5156 L221.9102,125.5156 L221.9102,132.6484 L211.9102,142.6484 L29.6128,142.6484 L29.6128,130.5156 A5,5 0 0 1 34.6128,125.5156" fill="#FFFFFF" style="stroke:#000000;stroke-width:1;"/><rect fill="none" height="199.0625" rx="5" ry="5" style="stroke:#000000;stroke-width:1;" width="872.1621" x="29.6128" y="125.5156"/><text fill="#000000" font-family="Verdana" font-size="13" font-weight="bold" lengthAdjust="spacing" textLength="147.2974" x="44.6128" y="138.5825">Initi&#235;le Verzameling</text><g class="message" data-participant-1="PGO" data-participant-2="DVA"><polygon fill="#000000" points="659.7896,159.7813,669.7896,163.7813,659.7896,167.7813,663.7896,163.7813" style="stroke:#000000;stroke-width:1;"/><line style="stroke:#000000;stroke-width:2;" x1="172.8071" x2="665.7896" y1="163.7813" y2="163.7813"/><text fill="#000000" font-family="Verdana" font-size="13" lengthAdjust="spacing" textLength="77.5366" x="179.8071" y="158.7153">Verzamelen</text><text fill="#000000" font-family="Verdana" font-size="13" lengthAdjust="spacing" textLength="4.1323" x="257.3438" y="158.7153">&#160;</text><text fill="#000000" font-family="Verdana" font-size="13" lengthAdjust="spacing" textLength="63.2036" x="261.4761" y="158.7153">gegevens</text></g><g class="message" data-participant-1="DVA" data-participant-2="BR"><polygon fill="#000000" points="96.1323,188.9141,86.1323,192.9141,96.1323,196.9141,92.1323,192.9141" style="stroke:#000000;stroke-width:1;"/><line style="stroke:#000000;stroke-width:2;" x1="90.1323" x2="670.7896" y1="192.9141" y2="192.9141"/><text fill="#000000" font-family="Verdana" font-size="13" lengthAdjust="spacing" textLength="35.7183" x="102.1323" y="187.8481">DigID</text><text fill="#000000" font-family="Verdana" font-size="13" lengthAdjust="spacing" textLength="4.1323" x="137.8506" y="187.8481">&#160;</text><text fill="#000000" font-family="Verdana" font-size="13" lengthAdjust="spacing" textLength="86.3091" x="141.9829" y="187.8481">authenticatie</text></g><g class="message" data-participant-1="DVA" data-participant-2="BR"><polygon fill="#000000" points="96.1323,233.1797,86.1323,237.1797,96.1323,241.1797,92.1323,237.1797" style="stroke:#000000;stroke-width:1;"/><line style="stroke:#000000;stroke-width:2;" x1="90.1323" x2="670.7896" y1="237.1797" y2="237.1797"/><text fill="#000000" font-family="Verdana" font-size="13" font-weight="bold" lengthAdjust="spacing" textLength="24.4575" x="102.1323" y="216.981">Zet</text><text fill="#000000" font-family="Verdana" font-size="13" font-weight="bold" lengthAdjust="spacing" textLength="4.5259" x="126.5898" y="216.981">&#160;</text><text fill="#000000" font-family="Verdana" font-size="13" font-weight="bold" lengthAdjust="spacing" textLength="47.4868" x="131.1157" y="216.981">cookie</text><text fill="#000000" font-family="Verdana" font-size="13" font-weight="bold" lengthAdjust="spacing" textLength="4.5259" x="178.6025" y="216.981">&#160;</text><text fill="#000000" font-family="Verdana" font-size="13" font-weight="bold" lengthAdjust="spacing" textLength="50.2417" x="183.1284" y="216.981">tijdens</text><text fill="#000000" font-family="Verdana" font-size="13" font-weight="bold" lengthAdjust="spacing" textLength="84.9316" x="102.1323" y="232.1138">verzamelen</text></g><path d="M676.6128,255.1797 L676.6128,285.1797 A5,5 0 0 0 681.6128,290.1797 L886.6128,290.1797 A5,5 0 0 0 891.6128,285.1797 L891.6128,260.1797 L881.6128,250.1797 L681.6128,250.1797 A5,5 0 0 0 676.6128,255.1797" fill="#FFFFFF" style="stroke:#000000;stroke-width:1;"/><path d="M881.6128,250.1797 L881.6128,257.6797 A2.5,2.5 0 0 0 884.1128,260.1797 L891.6128,260.1797 L881.6128,250.1797" fill="#FFFFFF" style="stroke:#000000;stroke-width:1;"/><text fill="#000000" font-family="Verdana" font-size="13" lengthAdjust="spacing" textLength="194.1621" x="682.6128" y="267.2466">Cookie wordt nu gezet tijdens</text><text fill="#000000" font-family="Verdana" font-size="13" lengthAdjust="spacing" textLength="128.1655" x="682.6128" y="282.3794">de verzamelen fase</text><g class="message" data-participant-1="DVA" data-participant-2="PGO"><polygon fill="#000000" points="183.8071,312.5781,173.8071,316.5781,183.8071,320.5781,179.8071,316.5781" style="stroke:#000000;stroke-width:1;"/><line style="stroke:#000000;stroke-width:2;stroke-dasharray:2.0,2.0;" x1="177.8071" x2="670.7896" y1="316.5781" y2="316.5781"/><text fill="#000000" font-family="Verdana" font-size="13" lengthAdjust="spacing" textLength="34.4424" x="189.8071" y="311.5122">Krijgt</text><text fill="#000000" font-family="Verdana" font-size="13" lengthAdjust="spacing" textLength="4.1323" x="224.2495" y="311.5122">&#160;</text><text fill="#000000" font-family="Verdana" font-size="13" lengthAdjust="spacing" textLength="87.1216" x="228.3818" y="311.5122">access_token</text></g><path d="M135.6519,338.5781 L367.1226,338.5781 L367.1226,345.7109 L357.1226,355.7109 L130.6519,355.7109 L130.6519,343.5781 A5,5 0 0 1 135.6519,338.5781" fill="#FFFFFF" style="stroke:#000000;stroke-width:1;"/><rect fill="none" height="286.7266" rx="5" ry="5" style="stroke:#000000;stroke-width:1;" width="856.1499" x="130.6519" y="338.5781"/><text fill="#000000" font-family="Verdana" font-size="13" font-weight="bold" lengthAdjust="spacing" textLength="191.4707" x="145.6519" y="351.645">PGO Start Launch via DVA</text><path d="M142.6128,365.7109 L142.6128,380.7109 A5,5 0 0 0 147.6128,385.7109 L695.6128,385.7109 A5,5 0 0 0 700.6128,380.7109 L700.6128,370.7109 L690.6128,360.7109 L147.6128,360.7109 A5,5 0 0 0 142.6128,365.7109" fill="#FFFFFF" style="stroke:#000000;stroke-width:1;"/><path d="M690.6128,360.7109 L690.6128,368.2109 A2.5,2.5 0 0 0 693.1128,370.7109 L700.6128,370.7109 L690.6128,360.7109" fill="#FFFFFF" style="stroke:#000000;stroke-width:1;"/><text fill="#000000" font-family="Verdana" font-size="13" lengthAdjust="spacing" textLength="218.4292" x="307.9507" y="377.7778">Token Exchange (RFC 8693) Flow</text><g class="message" data-participant-1="PGO" data-participant-2="DVA"><polygon fill="#000000" points="659.7896,468.5078,669.7896,472.5078,659.7896,476.5078,663.7896,472.5078" style="stroke:#000000;stroke-width:1;"/><line style="stroke:#000000;stroke-width:2;" x1="172.8071" x2="665.7896" y1="472.5078" y2="472.5078"/><text fill="#000000" font-family="Verdana" font-size="13" lengthAdjust="spacing" textLength="41.1963" x="179.8071" y="406.9106">/token</text><text fill="#000000" font-family="Verdana" font-size="13" lengthAdjust="spacing" textLength="416.6157" x="179.8071" y="422.0435">(grant_type=urn:ietf:params:oauth:grant-type:token-exchange)</text><text fill="#000000" font-family="Verdana" font-size="13" lengthAdjust="spacing" textLength="198.5928" x="179.8071" y="437.1763">(subject_token=access_token)</text><text fill="#000000" font-family="Verdana" font-size="13" lengthAdjust="spacing" textLength="474.9824" x="179.8071" y="452.3091">(requested_token_type=urn:ietf:params:oauth:token-type:access_token)</text><text fill="#000000" font-family="Verdana" font-size="13" lengthAdjust="spacing" textLength="92.479" x="179.8071" y="467.4419">(backchannel)</text></g><path d="M676.6128,490.5078 L676.6128,520.5078 A5,5 0 0 0 681.6128,525.5078 L971.6128,525.5078 A5,5 0 0 0 976.6128,520.5078 L976.6128,495.5078 L966.6128,485.5078 L681.6128,485.5078 A5,5 0 0 0 676.6128,490.5078" fill="#FFFFFF" style="stroke:#000000;stroke-width:1;"/><path d="M966.6128,485.5078 L966.6128,493.0078 A2.5,2.5 0 0 0 969.1128,495.5078 L976.6128,495.5078 L966.6128,485.5078" fill="#FFFFFF" style="stroke:#000000;stroke-width:1;"/><text fill="#000000" font-family="Verdana" font-size="13" lengthAdjust="spacing" textLength="279.189" x="682.6128" y="502.5747">Token exchange voor impersonation token</text><text fill="#000000" font-family="Verdana" font-size="13" lengthAdjust="spacing" textLength="117.457" x="682.6128" y="517.7075">volgens RFC 8693</text><g class="message" data-participant-1="DVA" data-participant-2="PGO"><polygon fill="#000000" points="183.8071,563.0391,173.8071,567.0391,183.8071,571.0391,179.8071,567.0391" style="stroke:#000000;stroke-width:1;"/><line style="stroke:#000000;stroke-width:2;stroke-dasharray:2.0,2.0;" x1="177.8071" x2="670.7896" y1="567.0391" y2="567.0391"/><text fill="#000000" font-family="Verdana" font-size="13" lengthAdjust="spacing" textLength="39.6602" x="189.8071" y="546.8403">Token</text><text fill="#000000" font-family="Verdana" font-size="13" lengthAdjust="spacing" textLength="4.1323" x="229.4673" y="546.8403">&#160;</text><text fill="#000000" font-family="Verdana" font-size="13" lengthAdjust="spacing" textLength="59.3315" x="233.5996" y="546.8403">response</text><text fill="#000000" font-family="Verdana" font-size="13" lengthAdjust="spacing" textLength="92.1934" x="189.8071" y="561.9731">(access_token</text><text fill="#000000" font-family="Verdana" font-size="13" lengthAdjust="spacing" textLength="4.1323" x="282.0005" y="561.9731">&#160;</text><text fill="#000000" font-family="Verdana" font-size="13" lengthAdjust="spacing" textLength="18.3511" x="286.1328" y="561.9731">als</text><text fill="#000000" font-family="Verdana" font-size="13" lengthAdjust="spacing" textLength="4.1323" x="304.4839" y="561.9731">&#160;</text><text fill="#000000" font-family="Verdana" font-size="13" lengthAdjust="spacing" textLength="69.6909" x="308.6162" y="561.9731">otp_token)</text></g><path d="M676.6128,585.0391 L676.6128,615.0391 A5,5 0 0 0 681.6128,620.0391 L890.6128,620.0391 A5,5 0 0 0 895.6128,615.0391 L895.6128,590.0391 L885.6128,580.0391 L681.6128,580.0391 A5,5 0 0 0 676.6128,585.0391" fill="#FFFFFF" style="stroke:#000000;stroke-width:1;"/><path d="M885.6128,580.0391 L885.6128,587.5391 A2.5,2.5 0 0 0 888.1128,590.0391 L895.6128,590.0391 L885.6128,580.0391" fill="#FFFFFF" style="stroke:#000000;stroke-width:1;"/><text fill="#000000" font-family="Verdana" font-size="13" lengthAdjust="spacing" textLength="198.2056" x="682.6128" y="597.106">De impersonation token wordt</text><text fill="#000000" font-family="Verdana" font-size="13" lengthAdjust="spacing" textLength="145.5581" x="682.6128" y="612.2388">gebruikt als otp_token</text><path d="M135.6519,639.3047 L324.1426,639.3047 L324.1426,646.4375 L314.1426,656.4375 L130.6519,656.4375 L130.6519,644.3047 A5,5 0 0 1 135.6519,639.3047" fill="#FFFFFF" style="stroke:#000000;stroke-width:1;"/><rect fill="none" height="46.2656" rx="5" ry="5" style="stroke:#000000;stroke-width:1;" width="746.6899" x="130.6519" y="639.3047"/><text fill="#000000" font-family="Verdana" font-size="13" font-weight="bold" lengthAdjust="spacing" textLength="148.4907" x="145.6519" y="652.3716">Launch naar Module</text><g class="message" data-participant-1="PGO" data-participant-2="MOD"><polygon fill="#000000" points="812.8882,673.5703,822.8882,677.5703,812.8882,681.5703,816.8882,677.5703" style="stroke:#000000;stroke-width:1;"/><line style="stroke:#000000;stroke-width:2;" x1="172.8071" x2="818.8882" y1="677.5703" y2="677.5703"/><text fill="#000000" font-family="Verdana" font-size="13" lengthAdjust="spacing" textLength="47.0742" x="179.8071" y="672.5044">Launch</text><text fill="#000000" font-family="Verdana" font-size="13" lengthAdjust="spacing" textLength="4.1323" x="226.8813" y="672.5044">&#160;</text><text fill="#000000" font-family="Verdana" font-size="13" lengthAdjust="spacing" textLength="25.7588" x="231.0137" y="672.5044">met</text><text fill="#000000" font-family="Verdana" font-size="13" lengthAdjust="spacing" textLength="4.1323" x="256.7725" y="672.5044">&#160;</text><text fill="#000000" font-family="Verdana" font-size="13" lengthAdjust="spacing" textLength="64.6191" x="260.9048" y="672.5044">otp_token</text></g><path d="M34.6128,699.5703 L323.0029,699.5703 L323.0029,706.7031 L313.0029,716.7031 L29.6128,716.7031 L29.6128,704.5703 A5,5 0 0 1 34.6128,699.5703" fill="#FFFFFF" style="stroke:#000000;stroke-width:1;"/><rect fill="none" height="323.8594" rx="5" ry="5" style="stroke:#000000;stroke-width:1;" width="960.915" x="29.6128" y="699.5703"/><text fill="#000000" font-family="Verdana" font-size="13" font-weight="bold" lengthAdjust="spacing" textLength="248.3901" x="44.6128" y="712.6372">Module Start SMART on FHIR flow</text><path d="M636.6128,726.7031 L636.6128,741.7031 A5,5 0 0 0 641.6128,746.7031 L853.6128,746.7031 A5,5 0 0 0 858.6128,741.7031 L858.6128,731.7031 L848.6128,721.7031 L641.6128,721.7031 A5,5 0 0 0 636.6128,726.7031" fill="#FFFFFF" style="stroke:#000000;stroke-width:1;"/><path d="M848.6128,721.7031 L848.6128,729.2031 A2.5,2.5 0 0 0 851.1128,731.7031 L858.6128,731.7031 L848.6128,721.7031" fill="#FFFFFF" style="stroke:#000000;stroke-width:1;"/><text fill="#000000" font-family="Verdana" font-size="13" lengthAdjust="spacing" textLength="130.8188" x="677.9631" y="738.77">SMART on FHIR flow</text><g class="message" data-participant-1="MOD" data-participant-2="DVA"><polygon fill="#000000" points="682.7896,799.2344,672.7896,803.2344,682.7896,807.2344,678.7896,803.2344" style="stroke:#000000;stroke-width:1;"/><line style="stroke:#000000;stroke-width:2;" x1="676.7896" x2="823.8882" y1="803.2344" y2="803.2344"/><text fill="#000000" font-family="Verdana" font-size="13" lengthAdjust="spacing" textLength="65.6538" x="688.7896" y="767.9028">/authorize</text><text fill="#000000" font-family="Verdana" font-size="13" lengthAdjust="spacing" textLength="129.0986" x="688.7896" y="783.0356">(launch=otp_token)</text><text fill="#000000" font-family="Verdana" font-size="13" lengthAdjust="spacing" textLength="36.2832" x="688.7896" y="798.1685">(front</text><text fill="#000000" font-family="Verdana" font-size="13" lengthAdjust="spacing" textLength="4.1323" x="725.0728" y="798.1685">&#160;</text><text fill="#000000" font-family="Verdana" font-size="13" lengthAdjust="spacing" textLength="56.5132" x="729.2051" y="798.1685">channel)</text></g><g class="message" data-participant-1="DVA" data-participant-2="BR"><polygon fill="#000000" points="96.1323,843.5,86.1323,847.5,96.1323,851.5,92.1323,847.5" style="stroke:#000000;stroke-width:1;"/><line style="stroke:#000000;stroke-width:2;" x1="90.1323" x2="670.7896" y1="847.5" y2="847.5"/><text fill="#000000" font-family="Verdana" font-size="13" lengthAdjust="spacing" textLength="60.6709" x="102.1323" y="827.3013">Correleer</text><text fill="#000000" font-family="Verdana" font-size="13" lengthAdjust="spacing" textLength="4.1323" x="162.8032" y="827.3013">&#160;</text><text fill="#000000" font-family="Verdana" font-size="13" lengthAdjust="spacing" textLength="64.6191" x="166.9355" y="827.3013">otp_token</text><text fill="#000000" font-family="Verdana" font-size="13" lengthAdjust="spacing" textLength="25.7588" x="102.1323" y="842.4341">met</text><text fill="#000000" font-family="Verdana" font-size="13" lengthAdjust="spacing" textLength="4.1323" x="127.8911" y="842.4341">&#160;</text><text fill="#000000" font-family="Verdana" font-size="13" lengthAdjust="spacing" textLength="52.2983" x="132.0234" y="842.4341">browser</text><text fill="#000000" font-family="Verdana" font-size="13" lengthAdjust="spacing" textLength="4.1323" x="184.3218" y="842.4341">&#160;</text><text fill="#000000" font-family="Verdana" font-size="13" lengthAdjust="spacing" textLength="42.1929" x="188.4541" y="842.4341">cookie</text></g><path d="M676.6128,865.5 L676.6128,895.5 A5,5 0 0 0 681.6128,900.5 L974.6128,900.5 A5,5 0 0 0 979.6128,895.5 L979.6128,870.5 L969.6128,860.5 L681.6128,860.5 A5,5 0 0 0 676.6128,865.5" fill="#FFFFFF" style="stroke:#000000;stroke-width:1;"/><path d="M969.6128,860.5 L969.6128,868 A2.5,2.5 0 0 0 972.1128,870.5 L979.6128,870.5 L969.6128,860.5" fill="#FFFFFF" style="stroke:#000000;stroke-width:1;"/><text fill="#000000" font-family="Verdana" font-size="13" lengthAdjust="spacing" textLength="266.9443" x="682.6128" y="877.5669">Cookie bestaat al sinds verzamelen fase,</text><text fill="#000000" font-family="Verdana" font-size="13" lengthAdjust="spacing" textLength="282.915" x="682.6128" y="892.6997">kan nu gecorreleerd worden met otp_token</text><g class="message" data-participant-1="DVA" data-participant-2="MOD"><polygon fill="#000000" points="812.8882,922.8984,822.8882,926.8984,812.8882,930.8984,816.8882,926.8984" style="stroke:#000000;stroke-width:1;"/><line style="stroke:#000000;stroke-width:2;stroke-dasharray:2.0,2.0;" x1="671.7896" x2="818.8882" y1="926.8984" y2="926.8984"/><text fill="#000000" font-family="Verdana" font-size="13" lengthAdjust="spacing" textLength="62.2007" x="678.7896" y="921.8325">Authorize</text><text fill="#000000" font-family="Verdana" font-size="13" lengthAdjust="spacing" textLength="4.1323" x="740.9902" y="921.8325">&#160;</text><text fill="#000000" font-family="Verdana" font-size="13" lengthAdjust="spacing" textLength="59.3315" x="745.1226" y="921.8325">response</text></g><g class="message" data-participant-1="MOD" data-participant-2="DVA"><polygon fill="#000000" points="682.7896,967.1641,672.7896,971.1641,682.7896,975.1641,678.7896,971.1641" style="stroke:#000000;stroke-width:1;"/><line style="stroke:#000000;stroke-width:2;" x1="676.7896" x2="823.8882" y1="971.1641" y2="971.1641"/><text fill="#000000" font-family="Verdana" font-size="13" lengthAdjust="spacing" textLength="41.1963" x="688.7896" y="950.9653">/token</text><text fill="#000000" font-family="Verdana" font-size="13" lengthAdjust="spacing" textLength="92.479" x="688.7896" y="966.0981">(backchannel)</text></g><g class="message" data-participant-1="DVA" data-participant-2="MOD"><polygon fill="#000000" points="812.8882,1011.4297,822.8882,1015.4297,812.8882,1019.4297,816.8882,1015.4297" style="stroke:#000000;stroke-width:1;"/><line style="stroke:#000000;stroke-width:2;stroke-dasharray:2.0,2.0;" x1="671.7896" x2="818.8882" y1="1015.4297" y2="1015.4297"/><text fill="#000000" font-family="Verdana" font-size="13" lengthAdjust="spacing" textLength="39.6602" x="678.7896" y="995.231">Token</text><text fill="#000000" font-family="Verdana" font-size="13" lengthAdjust="spacing" textLength="4.1323" x="718.4497" y="995.231">&#160;</text><text fill="#000000" font-family="Verdana" font-size="13" lengthAdjust="spacing" textLength="59.3315" x="722.582" y="995.231">response</text><text fill="#000000" font-family="Verdana" font-size="13" lengthAdjust="spacing" textLength="30.8306" x="678.7896" y="1010.3638">(met</text><text fill="#000000" font-family="Verdana" font-size="13" lengthAdjust="spacing" textLength="4.1323" x="709.6201" y="1010.3638">&#160;</text><text fill="#000000" font-family="Verdana" font-size="13" lengthAdjust="spacing" textLength="92.1934" x="713.7524" y="1010.3638">access_token)</text></g><path d="M137.6128,1040.4297 L137.6128,1070.4297 A5,5 0 0 0 142.6128,1075.4297 L853.6128,1075.4297 A5,5 0 0 0 858.6128,1070.4297 L858.6128,1045.4297 L848.6128,1035.4297 L142.6128,1035.4297 A5,5 0 0 0 137.6128,1040.4297" fill="#FFFFFF" style="stroke:#000000;stroke-width:1;"/><path d="M848.6128,1035.4297 L848.6128,1042.9297 A2.5,2.5 0 0 0 851.1128,1045.4297 L858.6128,1045.4297 L848.6128,1035.4297" fill="#FFFFFF" style="stroke:#000000;stroke-width:1;"/><text fill="#000000" font-family="Verdana" font-size="13" lengthAdjust="spacing" textLength="182.5649" x="393.0586" y="1052.4966">Module kan nu functioneren</text><text fill="#000000" font-family="Verdana" font-size="13" lengthAdjust="spacing" textLength="201.7983" x="393.0586" y="1067.6294">met geauthenticeerde browser</text><!--SRC=[xLXjJzj84FwUNp7NJu1A6-3eYzLMHv9Ie0b4ISf9fqhLnfuuspYxljrrW9xuHVSpxe_TxDgExJX0Iz7fFe0KXUpCFFFspExQ062uYH0wvmVGLz973OUHl82ps7247VWiQg9j6A2EfT08ewiOuMpKXnxwKoQudYFCqS18pb30-qkx628CfrAP1W3yOgP8Ad74kB2_zOoBc2asXp7pPw6IYGZQCf8ABgRSO5L5uvy92XyFb98NeodtPmArXjsgbiFmfHAeOATPbStPPOzCM8X3_WrXjzbiM0KI6kxpc0a3Jre4hb4z0QQXDQY9-n_Ed8Y-Qp8gb9FHTqtMaq4IeHFtpZhEhKqtXcF13V_dRsh1EQflR8uH5w4LamVOVkUgxorbLDKGGroWq5R72acdDV2WmyFZ3h24AYp8BQFsLJG8P6lh3-gDB-MCMcluru1GOB54tjgo1a8Q1CN3gG4voLDffpONKWK6H48nV2Ea3C8g15W2WWdJpZcAmE4j0w58R5eUV5JyQsY0-SGg_SLOkcG6fT9OrQ6XAaAN9SAVmeApF28NfYIVLkjfLgKLscqC3jlmwiNhlKr7t4Qjgi-TuyzY8rJKf2-6sFmsKSBZQ2QUeupsf2sfvnIshOBdRBOnSx99rZePVqNVf6cyBUTafShILXiCqgNRlAJGpiigYfqFwr5Wj7bZczByyz1W8McG-3n6fQKWGaW1oqelP1JQzkSbkhrTAR3Anfx2AOS7BD8WJPm5UsDq7LmNJ4egrtGSguJFJ1LlDR0gHJ9Y2COKf2DMQZ8D6iMUgTXjQHMq19GQPtGRzWu68w083u-E1p2ntAbGZe1pogrHjRhMTK4psrofQCkXoaKkdBT5lMXjeYJj4UNsbiUsBPMYiIA_IwFFmgOpJhUgRABl6junaP0nMrtGN0HwTM2VMjqP4-by-xdJm3M8TDOLi4QNjEG7URvBogmfIZvxgyokGjMOPyEe34UvbokxGWgHjJPBRKBbj-n3bPSnnEMkQVF5lAuEyJU2JkQH-_y_EocplpVQN4NuZbmhAGtyPME0raq79HmIYTArSKHAoxLJQh8zG08cc5iyebXKbujPhfsa0BI4gm1shJXhTznQZwcG2zYd7zVq2QIVpAbyMO0-YzrqfxzM4To9xCm09fGLjUfknIcouBiKqmxbUZRvzA3VlSFIVeGCSjCUk-JpPFux3ymKzffDf_7cUTQEHd6XS5UHhemY7ikuNBf2PNs_2da79oo9JArHDOsU55B7pCTWgTkMYU94r4AtooVs0e53evZ1y8goqZBYGKcbNrnB-Ym8wBPXxqc5V9XTiooKhLVBZhzQdznmoW9vOI4cj6cNq_gaiOM63Mt9m2XYMBbiD84BRgvSkMyYT8kfAXdhWQpZVAsGr-LcM3TCfOvNRQkAbqudhz1-HThcoeymQ4_fbvzJ-9PGyZu135Z04mslgt0H8pRUMekVJzqvEJ16yN5YyAw8RqGOKheexHNbFX27nSJ_eELHiGNygANTxMWcPiwujEMLbOvzAVe4Hey65RMCUMlRKhDNVC7CpzXJSOXEmVqHad74_NkPdyhxaUBCNNrJyjP8UbtPTehgFW2TwQAM1VpzCrErptbyy20exGT1UVyWACSFWdBw4oYq-xVfIfc2ZNveitXyA_3uLk3nhS3ZMu77jmAFRmN-_sy5-X7j09zwNLisRTcxysotkRl_R7TZb22S47Zp9UoyzFRslRqNy6dK1YlUR6nyw7T1qsE1Zn1mdTxAoNwpSS8M30O9-PsZ1sSnYfFEntm1tei59rhOn-t6oNclK7ZnwtQB4qTHsJpFUutigP4iV6aVOJpoVhZzgj6bJI2XiywZyZJemKGOTKMouRy0]--></g></svg>